<?xml version="1.0" encoding="UTF-8"?>
<svg id="Layer_2" xmlns="http://www.w3.org/2000/svg" viewBox="0 0 381.19 206.2">
  <defs>
    <style>
      .cls-1 {
        fill: #febc18;
      }

      .cls-2 {
        fill: #fff;
      }
    </style>
  </defs>
  <g id="Layer_2-2" data-name="Layer_2">
    <g id="Layer_1-2">
      <path d="M381.15,34.89c-.05-.12-.12-.23-.22-.3-.53-.4-.58-1.7-.11-3,.19-.52.27-.9.29-1.21-.02.02-.07.04-.07.06-.04.07-.13.15-.3.13.03-.05-.2-.17-.52-.26-.54-.15-.91-.63-.58-.76.07-.03.08-.24.02-.48-.12-.48.01-.65.62-.89.13-.05.17-.09.23-.13v-.18s0-.03-.03-.03c-.23-.06-.48-.56-.34-.68.21-.19.06-.38-.22-.27-.28.11-.59-.1-.48-.32.04-.07.22-.18.42-.26.11-.05.25-.12.38-.2.15-.52.11-1.13-.19-1.87-.19-.46-.33-.98-.33-1.16,0-.17-.13-.45-.29-.62-.34-.36-.68-1.21-.66-1.72,0-.1-.02-.21-.07-.3-.19.08-.25.08-.17-.09.01-.02.04-.04.05-.06-.02-.02-.04-.06-.06-.07-.19-.12-.31-.46-.4-1.1-.12-.88-.8-2.19-1.15-2.2-.11-.37-.18-.61-.27-.77-.17-.3.09-1.4.4-1.76.07-.08.14-.38.14-.66.01-.28.17-.8.36-1.15.21-.37.3-.71.4-1.59-.13.08-.24.12-.26.08-.05-.09.15-.34.29-.41.03-.34.06-.74.1-1.24.1-1.4.24-2.96.31-3.47.04-.25.04-.5.04-.74-.06.02-.11.04-.2.04-.31.01-.43-.06-.38-.21.04-.13.25-.27.47-.31h.08c0-.15-.02-.3-.05-.43-.03-.13-.06-.21-.08-.3-.24,0-.35-.02-.37-.05.23,0,.33.03.37.05-.11-.38-.19-.36-.58-.12-.39.24-.46.37-.4.67.07.32.03.37-.3.36-.28-.01-.37.07-.37.26v.21s0,.03,0,.03c.02.77-.09,1-.45.88-.15-.05-.3-.19-.43-.36.22.39.16.45-.45.42-.74-.04-1.02-.22-.42-.28.15-.01.31-.11.34-.22.08-.27.31-.26.49.02-.07-.1-.14-.18-.19-.3-.18-.4-.44-.42-.78-.06-.13.14-.23.24-.32.32.28-.01.58-.01.62,0,.14.08-.12.23-.38.23-.14-.01-.32-.05-.45-.09-.15.08-.24.03-.3-.17-.11-.33-.33-.3-.43.06-.07.23-.02.32.19.32.33.01.36.36.04.62-.13.1-.24.36-.24.57-.44.01-1.37-.19-1.65-.09-.42.15-.63.9-.38,1.31.15.24.19.41.19.54.05.12.13.22.24.22.1,0,.16.08.18.2.06.03.13.05.2.1.17.13.39.18.49.13.1-.05.21-.05.25.02.04.07.16.07.26.02.11-.06.21-.07.24-.02-.36.3-.5.82-.37,1.05.13.22.07.35-.33.63-.28.2-.34.19-.51-.1-.1-.17-.22-.28-.27-.24-.07.07-.22-.13-.34-.38-.08.05-.17.09-.26.11.06.13-.09.25-.47.25-.33,0-.5-.07-.5-.21.01-.29.17-.36.63-.25.03.01.03.03.06.03.02-.12.13-.26.36-.38-.05-.16-.08-.31-.05-.39.06-.19.18-.31.31-.36-.23-.08-.51-.26-.57-.37-.11-.08-.23-.17-.36-.33-.22-.27-.45-.43-.51-.37s-.26.1-.43.1c-.28-.01-.31.06-.29.59.02.44-.01.74-.08.95.01.16.01.35-.01.58-.04.44,0,.48.35.59.42.12.47.16.37.34-.13.24-.42.31-.61.16-.11-.09-.29-.19-.41-.24-.17-.07-.18-.15-.05-.41.16-.31.15-.33-.21-.51-.09-.05-.14-.11-.2-.16-.1.06-.18.18-.27.43-.11.3-.26.67-.33.84.34-.08.37-.06.36.28-.01.23-.15.49-.35.62-.26.19-.29.26-.14.38-.07.31-.23.28-.34.18-.13-.12-.18-.03-.2.42-.44-.22-.88-.45-1.32-.67.03.51.06,1.07.08,1.68.17,4.28.17,5.43-.02,7.73-.24,3.08-.05,8.04.32,7.89.46-.18.56,2.32.19,4.85-.19,1.35-.34,3.48-.34,4.75.01,2.22-.34,4.26-.53,3.09-.05-.31-.11-2.69-.14-5.28-.06-5.95-.13-6.65-.76-7.19-.28-.24-.61-1.36-.74-2.49-.28-2.47-.29-3.87-.08-8.24.2-4.12.44-3.89.56.53.06,2.39.17,3.37.38,3.49.27.15.29-.34.24-6.19-.02-1.99,0-3.65.03-4.99-2.01-.9-4.27-1.65-6.69-2.26-.86.04-1.86.08-2.9.11-.23-.07-.44-.1-.58-.09-.43.03-.65-.14-.34-.27.25-.1.16-.23-.12-.27.65.01,1.31.03,1.96.04-.94-.2-1.9-.37-2.87-.52.36-.06.7-.14.84-.22.37-.19.41-.34.09-.31,0,0-.66-.14-1.27-.33-1.04-.33-1.09-.36-.77-.51.44-.2.45-.28.02-.28-.51,0-1.36.45-1.19.63.09.1.02.17-.21.2-.34.04-.33.11.05.44.02.01.02.03.04.04-.65-.08-1.3-.15-1.96-.21.17-.02.33-.05.43-.09.33-.11-.82-.42-1.37-.37-.5.04-.63-.26-.17-.41.21-.07.19-.15-.07-.32-.19-.13-.35-.32-.36-.43-.02-.24-.69-.28-.8-.05-.16.32-.55.39-.93.15-.27-.17-.46-.21-.92-.17-.4.03-.7,0-.99-.12-.26-.1-.59-.15-.9-.13-.27.02-.7.04-.96.03-3.58-.05-4.68-.02-5.11.15-.16.07-.65.08-1.44.05-.86-.03-1.32-.02-1.6.07-.25.07-.89.13-1.48.15h.07c.32.04.58.1.58.1,0,.05-.72-.04-.96-.11-.38,0-.7,0-.78-.04-.31-.17-3.74-.11-4.31.07-.43.14-.6.15-.89.07-.27-.08-.47-.08-.86-.01-.64.11-2.78.16-2.95.07-.17-.09-1.6-.11-2.93-.07,0,.02,0,.05.01.07.11.15.09.15-.38.09-.28-.03-.6-.05-1.02-.08l-.02-.02c-.42.03-.75.06-.88.1-.1.03-.21.06-.33.08-.55-.01-1.09-.03-1.63-.04.61-.06-.06-.16-1.42-.2-.78-.02-1.79.02-2.73.08-1.92-.06-3.83-.1-5.63-.15-.15.07-.48.1-.68.04-.08-.03-.3-.03-.47,0-.26.04-.34.02-.45-.07-.37,0-.71-.03-1.07-.04.35.06.33.13-.04.09-.13-.05-.14-.09-.14-.09-.33-.01-.69-.03-1.01-.03,4.08-.1,7.8-.22,9.95-.34,1.04-.06,2.21-.1,2.62-.1s1.99-.05,3.67-.12c-.02,0-.03-.03-.06-.03-.48-.15-.55-.74-.1-.83.13-.02.46,0,.73.05.69.13.78.11.86-.16,0,0,0-.02,0-.02.6,0,1.21-.01,1.83-.02.43.12.7.28.6.41-.09.11-.02.13.52.16.54.03.72.11.71.19.54-.03,1.97-.06,4.64-.1.09-.05.42-.11.86-.16.55-.06.87-.07.96-.03.15-.03.34-.06.6-.06.24-.01.51-.04.6-.07.09-.03.55-.11,1.03-.19.95-.15,1.16-.19.79-.17-.11,0-.18-.03-.21-.07.64,0,1.28-.01,1.93-.02.12.02.24.04.34.05.45.06.77.13.72.16-.05.03.17.07.49.09.32.03.6.08.6.12.01.04.15.07.32.07s.36.02.42.06c.03.02.17.05.36.08,3.34-.04,5.92-.08,7.88-.13.23-.04.92-.07,1.01-.03,1.5-.04,2.6-.08,3.32-.13.55-.04,2.65-.1,4.65-.12,2.2-.02,4.35-.1,5.4-.18.56-.04,1.31-.09,2.09-.14-.17-.04-.37-.08-.57-.13.59,0,1.08,0,1.44-.01.01,1.13.03,2.06.04,2.85,2.24-.59,3.17-1.58,1.78-2.13-.41-.16-.92-.48-1.37-.83.22.06.37.11.35.15.81-.04,1.51-.08,1.88-.08,2.25-.04,2.18-.21-.13-.3-.95-.04-2.06-.11-2.59-.17-.18-.16-.34-.32-.47-.46.05,0,.11-.01.16-.02,1.38-.11,2.19-.42,2.23-.85.03-.33-.03-.36-1.83-.84-1.03-.28-2.09-.5-2.37-.5-.12,0-.37-.04-.66-.09.12-.01.25-.03.37-.03,1.24-.01,1.57-.18.6-.31-.35-.05-.64-.14-.64-.2s-.32-.13-.7-.15c-.88-.05-2.46-.17-4.87-.36-2.39-.2-3.82-.27-6.54-.23-.75-.07-1.5-.14-2.1-.22-3.6-.42-8.68-.47-11.38-.11-.31.04-.72.08-1.21.11-5.37-.05-10.59-.12-11.73-.17-3.64-.15-5.05-.16-7.92-.09-1.42.04-2.94.1-3.55.15-.98-.02-2.27-.03-4.55-.05-1.94-.02-5.06-.07-6.93-.13-2.55-.07-7.01-.08-17.62-.03-19.68.1-25.98.13-30.23.24-14.77-.12-39.05-.29-39.9-.3-7-.06-11.99-.1-15.71-.12-1.24-.01-2.71-.02-4.7-.02-1.99,0-3.46,0-4.7.02-3.72.02-8.71.06-15.71.12-.85,0-25.13.18-39.9.3-4.25-.11-10.55-.14-30.23-.24-10.61-.05-15.07-.04-17.62.03-1.87.06-4.99.11-6.93.13-2.27.02-3.57.03-4.55.05-.62-.05-2.13-.11-3.55-.15-2.87-.07-4.28-.06-7.92.09-1.14.05-6.36.12-11.73.17-.49-.03-.9-.07-1.21-.11-2.7-.36-7.78-.31-11.38.11-.6.07-1.36.15-2.1.22-2.71-.04-4.15.03-6.54.23-2.41.19-3.99.31-4.87.36-.38.02-.7.09-.7.15s-.29.15-.64.2c-.97.13-.64.3.6.31.12,0,.25.01.37.03-.29.05-.53.09-.66.09-.28,0-1.34.22-2.37.5-1.8.48-1.86.51-1.83.84.04.43.85.74,2.23.85.05.01.11.02.16.02-.12.14-.28.3-.47.46-.53.06-1.64.13-2.59.17-2.31.09-2.38.26-.13.3.37,0,1.07.04,1.88.08-.02-.04.13-.09.35-.15-.46.35-.96.66-1.37.83-1.39.55-.46,1.54,1.78,2.13.01-.79.03-1.72.04-2.85.36,0,.85,0,1.44.01-.2.05-.39.09-.57.13.78.05,1.53.1,2.09.14,1.05.08,3.2.16,5.4.18,2,.02,4.1.08,4.65.12.72.05,1.82.09,3.32.13.09-.04.78-.01,1.01.03,1.96.05,4.54.09,7.88.13.19-.03.33-.06.36-.08.06-.04.25-.06.42-.06s.31-.03.32-.07c0-.04.28-.09.6-.12.32-.02.54-.06.49-.09-.05-.03.27-.1.72-.16.11-.01.22-.03.34-.05.64,0,1.28.01,1.93.02-.03.05-.1.08-.21.07-.37-.02-.16.02.79.17.48.08.94.16,1.03.19.09.03.36.06.6.07.26,0,.45.03.6.06.09-.04.41-.03.96.03.44.05.77.11.86.16,2.67.04,4.1.07,4.64.1-.01-.08.17-.16.71-.19.54-.03.61-.05.52-.16-.1-.13.17-.29.6-.41.62,0,1.23.01,1.83.02,0,0,0,.01,0,.02.08.27.17.29.86.16.27-.05.6-.07.73-.05.45.09.38.68-.1.83-.03,0-.04.02-.06.03,1.68.07,3.25.12,3.67.12s1.58.04,2.62.1c2.15.12,5.87.24,9.95.34-.32,0-.68.02-1.01.03,0,0-.01.04-.14.09-.37.04-.39-.03-.04-.09-.36.01-.7.03-1.07.04-.11.09-.19.11-.45.07-.17-.03-.39-.03-.47,0-.2.06-.53.03-.68-.04-1.8.05-3.71.1-5.63.15-.94-.06-1.95-.1-2.73-.08-1.36.03-2.03.14-1.42.2-.54.01-1.09.03-1.63.04-.12-.03-.24-.05-.33-.08-.13-.04-.46-.07-.88-.1l-.02.02c-.42.03-.74.05-1.02.08-.47.06-.49.06-.38-.09.01-.02.01-.05.01-.07-1.33-.04-2.76-.02-2.93.07-.17.09-2.31.04-2.95-.07-.39-.07-.59-.07-.86.01-.29.08-.46.07-.89-.07-.57-.18-4-.24-4.31-.07-.08.04-.4.04-.78.04-.24.07-.96.16-.96.11,0,0,.26-.06.58-.1h.07c-.59-.02-1.23-.08-1.48-.15-.28-.09-.74-.1-1.6-.07-.79.03-1.28.02-1.44-.05-.43-.17-1.53-.2-5.11-.15-.26.01-.69-.01-.96-.03-.31-.02-.64.03-.9.13-.29.12-.59.15-.99.12-.46-.04-.65,0-.92.17-.38.24-.77.17-.93-.15-.11-.23-.78-.19-.8.05-.01.11-.17.3-.36.43-.26.17-.28.25-.07.32.46.15.33.45-.17.41-.55-.05-1.7.26-1.37.37.1.03.26.06.43.09-.66.06-1.31.14-1.96.21.01-.01.02-.03.04-.04.38-.33.39-.4.05-.44-.23-.03-.3-.1-.21-.2.17-.18-.68-.63-1.19-.63-.43,0-.42.08.02.28.32.15.27.18-.77.51-.61.19-1.27.33-1.27.33-.32-.03-.28.12.09.31.15.08.48.16.84.22-.97.15-1.93.32-2.87.52.65-.01,1.31-.03,1.96-.04-.27.04-.37.17-.12.27.31.13.09.3-.34.27-.14-.01-.35.03-.58.09-1.04-.04-2.04-.08-2.9-.11-2.42.61-4.68,1.36-6.69,2.26.03,1.34.05,3,.03,4.99-.05,5.85-.03,6.34.24,6.19.21-.12.32-1.1.38-3.49.12-4.42.36-4.65.56-.53.21,4.37.2,5.77-.08,8.24-.13,1.13-.46,2.25-.74,2.49-.63.54-.7,1.24-.76,7.19-.03,2.59-.09,4.97-.14,5.28-.19,1.17-.54-.87-.53-3.09,0-1.27-.15-3.4-.34-4.75-.37-2.53-.27-5.03.19-4.85.37.15.56-4.81.32-7.89-.19-2.3-.19-3.45-.02-7.73.02-.61.05-1.17.08-1.68-.44.22-.88.45-1.32.67-.02-.45-.07-.54-.2-.42-.11.1-.27.13-.34-.18.15-.12.12-.19-.14-.38-.2-.13-.34-.39-.35-.62-.01-.34.02-.36.36-.28-.07-.17-.22-.54-.33-.84-.09-.25-.17-.37-.27-.43-.06.05-.11.11-.2.16-.36.18-.37.2-.21.51.13.26.12.34-.05.41-.12.05-.3.15-.41.24-.19.15-.48.08-.61-.16-.1-.18-.05-.22.37-.34.36-.11.39-.15.35-.59-.02-.23-.02-.42-.01-.58-.07-.21-.1-.51-.08-.95.02-.53-.01-.6-.29-.59-.17,0-.37-.04-.43-.1s-.29.1-.51.37c-.13.16-.25.25-.36.33-.06.11-.34.29-.57.37.13.05.25.17.31.36.03.08,0,.23-.05.39.23.12.34.26.36.38.03,0,.03-.02.06-.03.46-.11.62-.04.63.25,0,.14-.17.21-.5.21-.38,0-.53-.12-.47-.25-.09-.02-.18-.06-.26-.11-.12.25-.27.45-.34.38-.05-.04-.17.07-.27.24-.17.29-.23.3-.51.1-.4-.28-.46-.41-.33-.63.13-.23-.01-.75-.37-1.05.03-.05.13-.04.24.02.1.05.22.05.26-.02.04-.07.15-.07.25-.02.1.05.32,0,.49-.13.07-.05.14-.07.2-.1.02-.12.08-.2.18-.2.11,0,.19-.1.24-.22,0-.13.04-.3.19-.54.25-.41.04-1.16-.38-1.31-.28-.1-1.21.1-1.65.09,0-.21-.11-.47-.24-.57-.32-.26-.29-.61.04-.62.21,0,.26-.09.19-.32-.1-.36-.32-.39-.43-.06-.06.2-.15.25-.3.17-.13.04-.31.08-.45.09-.26,0-.52-.15-.38-.23.04-.02.34-.02.62,0-.09-.08-.19-.18-.32-.32-.34-.36-.6-.34-.78.06-.05.12-.12.2-.19.3.18-.28.41-.29.49-.02.03.11.19.21.34.22.6.06.32.24-.42.28-.61.03-.67-.03-.45-.42-.13.17-.28.31-.43.36-.36.12-.47-.11-.45-.88,0,0-.01-.02,0-.03v-.21c0-.19-.09-.27-.37-.26-.33.01-.37-.04-.3-.36.06-.3-.01-.43-.4-.67-.39-.24-.47-.26-.58.12.04-.02.14-.05.37-.05-.02.03-.13.05-.37.05-.02.09-.05.17-.08.3-.03.13-.04.28-.05.43h.08c.22.04.43.18.47.31.05.15-.07.22-.38.21-.09,0-.14-.02-.2-.04,0,.24,0,.49.04.74.07.51.21,2.07.31,3.47.04.5.07.9.1,1.24.14.07.34.32.29.41-.02.04-.13,0-.26-.08.1.88.19,1.22.4,1.59.19.35.35.87.36,1.15,0,.28.07.58.14.66.31.36.57,1.46.4,1.76-.09.16-.16.4-.27.77-.35.01-1.03,1.32-1.15,2.2-.09.64-.21.98-.4,1.1-.02.01-.04.05-.06.07.01.02.04.04.05.06.08.17.02.17-.17.09-.05.09-.07.2-.07.3.02.51-.32,1.36-.66,1.72-.16.17-.29.45-.29.62,0,.18-.14.7-.33,1.16-.3.74-.34,1.35-.19,1.87.13.08.27.15.38.2.2.08.38.19.42.26.11.22-.2.43-.48.32-.28-.11-.43.08-.22.27.14.12-.11.62-.34.68-.03,0-.03.03-.03.03v.18c.06.04.1.08.23.13.61.24.74.41.62.89-.06.24-.05.45.02.48.33.13-.04.61-.58.76-.32.09-.55.21-.52.26-.17.02-.26-.06-.3-.13,0-.02-.05-.04-.07-.06.02.31.1.69.29,1.21.47,1.3.42,2.6-.11,3-.1.07-.17.18-.22.3.25.22.23.28-.04.53.03.18.1.34.25.41.54.28.81,1.79.64,2.8.14-.17.27-.19.32,0,.03.14-.05.31-.22.46-.13.12-.22.15-.28.14.19.11.15.41-.11.66.07.22.16.68.22,1.18,0,.08.02.14.02.21.35-.06,1.04,0,1.2.16.24.23.04.27-.62.11-.3-.07-.46-.11-.57-.12.09.86.05.94-.27,1.27l.04.18c-.36.38-.37.4-.13.94.13.3.25.7.25.89,0,.18.15.6.33.93.22.4.3.77.26,1.12-.03.29.03.7.14.92.03.05.04.12.06.18h.2c.41-.08.3.28-.09.43.04.21.06.44.06.69.08-.04.15-.04.21,0,.39.25.39.31-.05.49-.08.03-.13.07-.18.11,0,.08-.01.16-.02.23.07.03.16.04.31.02.1-.02.23.05.28.15.06.11.22.16.39.14.45-.07.55.1.22.37-.33.27-.73.22-.76-.1-.01-.11-.14-.17-.35-.15-.06,0-.1-.02-.15-.03-.06.31-.15.57-.27.73-.47.63-.46,1.12.05,2.08.59,1.12.46,3.6-.19,3.63-.37,0-.25,1.19.14,1.39.31.16.32.2.36,3.86.03,3,0,3.74-.17,3.93-.19.21-.18.27.07.52.16.15.29.42.3.59,0,.28.06.37.11.34-.03.36-.07.75-.09,1.1-.07.14-.11.79-.1,1.45-.1,1.44-.2,2.81-.28,4.13-.35.21-.43.33-.34.6.1.29.17,1.12.2,1.93-.03.63-.07,1.27-.1,1.86v.04c-.19.17-.18.54-.04,1.02-.02.37-.03.73-.04,1.08.11.05.22.13.22.19,0,.07-.12.07-.23.05-.07,1.83-.1,3.46-.1,4.79s-.04,3.36-.11,4.55c-.06,1.19-.09,2.76-.05,3.49.04.68.05,2.39.03,3.92h.09c.3.13.33.39.05.55-.05.03-.09.06-.14.08v1.49c.04-.06.14-.13.32-.17-.02.11-.11.23-.2.25-.06.02-.1.01-.12,0,0,1.5.04,3.26.1,4.6v.06s.07-.05.19-.07c.17-.02.39-.13.47-.22.31-.35,1.29.02,1.33.51,0,.09-.14.16-.45.21-.39.06-.45.09-.36.26.06.12.02.22-.11.26-.11.04-.32.12-.46.17-.1.04-.33.1-.57.15.07,1.68.14,3.45.17,4.37.05,1.65.12,3.13.2,4.51-.03.08-.07.16-.11.25-.39.88-.4.92-.14,1.3.22.33.29.88.41,3.56.29,6.33.3,6.9.12,7.27-.18.39.02,7.12.54,7.29.09.05.12.23.07.4-.05.18.01.41.15.57.19.21.25.69.31,2.64,0,.22.01.43.02.63.05.03.07.06.05.09l-.05.02c.05,1.34.12,2.25.16,2.81-.19.15-.22.18-.2.24.02.08-.08.17-.2.21l.06.16c.17-.11.27-.18.37-.25v.13c-.26.11-.26,1.19,0,1.44.12.12.14.51.05,1.45-.08.87-.15,2.91-.16,4.2.06,0,.12.02.22.07.22.11.3.52.24,1.24-.03.39-.04.4-.18.42-.08,0-.16-.04-.23-.1.02.43.04.94.05,1.59,0,.02.02.04,0,.06.02.85.04,1.94.07,3.43.03,2.07.12,3.92.18,4.1.26.7.38,3.1.19,4.09-.13.71-.15,2.05-.06,4.97.03.88.04,1.59.05,2.19.1,0,.19.03.23.08-.09-.02-.16-.02-.22,0,.03,2.03-.05,2.63-.31,3.19-.12.25-.13.63-.05,1.15.06.35.11.81.13,1.13.08-.04.18-.05.21,0,.05.08-.03.16-.2.19.07,2.12.04,3.39-.07,3.47-.17.12-.15.5.05.98.15.35.2,1.13.24,3.22.01.86.05.97.28.91.05-.01.08-.03.11-.06-.33-.06-.27-.35.07-.32l.06.02c.02-.14.04-.31.04-.57.01-.72.07-.9.31-.99.26-.1.28-.19.17-.84-.1-.6-.08-.75.12-.84.32-.14.59.03.77.48.19.16.25.35.14.47.04.19.08.4.1.64.15-.05.49-.06.83-.01.37.06.51.08.54.13-.05-.33-.05-.69.01-.98.15.6.32,1.18.51,1.71-.03.09-.07.14-.12.14-.18,0-.33-.37-.4-.82-.01.02-.03.05-.06.08-.08.09-.13.26-.11.37.02.12-.06.25-.22.31-.22.09-.24.15-.16.51.08.33.07.42-.08.43-.08,0-.12.13-.14.28.06-.05.11-.1.14-.16.1-.2.17-.04.3.64.23,1.16.17,1.36-.32,1.05-.18-.11-.3-.15-.39-.11l-.03.02c-.13.11-.14.5-.07,1.28.14,1.39.15,1.41.66,1.29.29-.07.45.14.47.64.01.41.11,1.02.2,1.36.1.34.2.96.22,1.38.03.51.23.75.6.7.51-.06.56-.03.65.4.18.78.82,1.01.79.28,0-.19.09-.3.28-.31.37-.01.52-.91.24-1.42-.11-.2-.19-.89-.26-2.28-.08.02-.18.01-.3-.02-.46-.12-.59.12-.3.54.46.68-.13,1.02-.83.47-.53-.41-.68-.75-.39-.85.43-.14.32-.7-.14-.72-.1-.3.27-.4.46-.29.1.06.25.07.33,0-.37-.28-.66-.39-.84-.46-.17-.07-.39-.05-.48.04-.09.09-.22.13-.29.09-.07-.04.06-.16.28-.27.26-.13.49-.15.66-.05.14.08.31.14.38.11.17-.05-.26-.91-.51-1.04-.34-.17-.22-.46.14-.32.41.16.53.3.44.53-.04.11.03.27.18.39.14.11.24.24.22.29-.04.11.47.4.62.35.07-.02.08-.14.02-.26-.08-.17-.04-.2.21-.15h.05c0-.14,0-.28-.01-.4.09.12.18.22.27.33.15-.17-.02-.59-.46-.95-.29-.23-.39-.26-.5-.15-.08.08-.22.09-.36.06-.08.08-.12.08-.13-.05-.07-.03-.14-.08-.19-.14-.11-.13-.08-.24.04-.33-.11-.12-.27-.21-.45-.25-.04-.08-.08-.17-.12-.25-.07-.17-.15-.33-.21-.44.11-.13.23-.26.35-.34.07.04.13.07.2.09-.02.04-.03.08-.07.12-.17.24-.16.3.04.4.25.12.46.09.42-.07-.01-.06.07-.12.17-.17-.05.09-.03.13.13.14.07,0,.13.03.18.07-.02.06-.04.13-.08.2-.08.14-.11.26-.12.37.32-.03.35-.08.31-.46-.04-.42-.04-.43.33-.28.21.08.5.13.65.1.15-.03.57.08.94.25.65.29.66.3.47.43-.11.07-.19.24-.19.37,0,.14-.12.25-.29.27-.26.03-.29.09-.27.5.02.38-.01.47-.17.44-.13-.02-.23.21-.27.47.54.66,1.09,1.26,1.64,1.78l.02.02c.11.1.22.19.33.28.05.14.13.25.24.25v-.04c.44.37.88.72,1.33,1.04.04.12.09.21.13.21,0,0,.05-.05.07-.08.05.04.11.07.16.1,0-.02.02-.07.02-.07v-.43c-.02-.47-.03-.91-.04-1.3-.09-1.57-.3-2.48-.65-2.4-.3.07-.42-3.94-.37-12.04.08-6.81.13-11.48.17-14.43.07-2.95.17-4.19.29-4.14.09.04.31-.79.5-1.84v-.08c-.25-1.77-.27-3.84-.07-6.77-.11-1.17-.26-2.05-.36-2.09-.17-.07-.2-.64-.12-2.26.27-5.25.28-6.5.04-8.22-.35-2.55-.13-12.97.31-15.06.36-1.69.22-7.02-.27-10.27-.31-2.09-.17-6.43.31-9.66.16-1.07.32-2.8.35-3.87.08-2.57.53-2.88.63-.44.07,1.7.06,7.18-.06,21.77.02,2.42.05,5.53.06,6.9.05,1.4.02,3.29-.08,4.3-.11,1.19-.16,5.06-.14,11.24.08-.55.18-.92.29-1.01.09-.08.1-.08.21.05.21.24.31.31.45.31.17,0,.37-.11.46-.25.13-.21.55.03.53.29,0,.03.04.1.09.17.05.06.13.18.16.27.03.09.14.22.23.28.09.07.16.16.16.21,0,.04.03.13.09.18.05.06.13.28.17.5.04.22.12.46.17.53.52.79.54,1,.2,2.11-.07.24-.1.45-.07.65.02.16.04.61.04.99s.02.86.04,1.07c.01.21.03.51.04.68,0,.4.06.86.13.93.03.03.04.41.03.84-.03.79.03,1.75.13,2.11.03.1.01.68-.04,1.28-.08,1-.08,1.1.04,1.24.07.08.15.21.17.29.15.51.24.75.39,1.06.1.2.22.47.28.59.06.13.12.36.13.51.02.15.06.44.08.63.05.28.04.39-.05.56-.14.27-.27.66-.38,1.13-.02.07-.04.14-.07.21-.05-.11-.11-.24-.15-.34-.08-.2-.1-.22-.19-.26-.12-.05-.18-.15-.14-.22l-.25-.08c.08.38.14.53.22.61s.1.13.08.26c0,.02.01.05.03.07.02.01.12.19.22.4-.2.54-.41,3-.3,3.83.02.17.17,1.26.19,1.47.04.21.08.69.1,1.07.03.38.05.74.06.79s-.06.44-.16.86c-.26,1.11-.3,2.37-.09,3.06.04.15.09.4.13.55.05.31.13.48.29.68.06.07.11.17.1.23,0,.05.06.24.13.42.12.3.12.38.02,1.03-.24,1.47-.34,2.68-.24,2.87.29.53.48,1.25.41,1.57-.01.06,0,.23.02.38.02.15.07.5.11.78.03.29.08.58.11.65.03.07.02.47-.01.88-.02.41-.04.77-.04.77.04.04.13.65.16,1.11.03.42,0,.96-.14,2.1-.02.25-.05.59-.07.77-.02.17-.08.72-.14,1.22-.07.49-.11,1.07-.1,1.27.01.21-.02.39-.02.39,0,0-.07.14-.11.28-.13.48-.32.94-.53,1.24-.05.07-.07.2-.06.3.02.12-.02.22-.12.32-.24.26-.35,1.23-.17,1.61s.23,1.32.09,1.63c-.05.1-.14.51-.22.94.04.46.12.85.23,1.03.08-.01.16-.03.23-.04.02-.12.09-.12.26-.03.25-.03.51-.05.76-.07.03-.13.04-.29,0-.5-.04-.26-.04-.46-.01-.55.48.17.98.34,1.52.51,1.07.32,2.15.57,3.28.79.55.03,1.1.07,1.59.05.55-.03,2.06-.05,3.35-.06,1.29,0,2.91-.03,3.61-.06.7-.03,1.72-.05,2.28-.05,1.35,0,2.91-.07,3.13-.15.1-.03,1.37-.05,2.83-.04.68,0,1.39,0,2.1,0,.1.07.17.12.17.14,0,.08,1.58.94,3.32,1.81,1.17.58,4.18,1.61,4.71,1.6.35-.01.59.05.74.19.19.17.66.35,1.13.48-4.53,0-8.7.02-12.54.02-.04.08.01.12.2.12.38.02.4.1.09.19.38,0,.62.01.66.02.02,0,.02.01.04.02-.92-.01-1.87-.03-2.85-.04-.03-.01-.07-.02-.1-.03-.38-.16-.37-.22.05-.16.16.02.57.05.9.05.56.01.6-.01.56-.15v-.02h-4.7s-.17.05-.73.05c-.04-.03-.1-.07-.28-.15s-.45-.2-.61-.28c-.1-.05-.13-.06-.18-.08,0-.02-.01-.02-.05-.02-.05-.02-.08-.02-.1,0-.08.05-.38.01-.37-.06,0,0-.08-.05-.21-.1-.61-.22-.56-.16.18.19.33.16.61.3.62.32.02.02.06.05.1.05.21.04.29.07.37.14-.43,0-.78.02-.82.03-.11.04-.24.04-.33,0-.05-.02,0-.05.04-.07h-2.41s.04.01.05.03c.01.02-.01.03-.07.06.01,0,0,.01.02.02-1.07-.03-2.16-.06-3.3-.09-3.17-.09-6.83-.19-9.49-.25,0,0,0,0,.03-.02.04-.01.05-.04.05-.04-.03-.02-.14,0-.15.02l-.04.04c-1.02-.02-1.91-.04-2.52-.05h-.05c-.6.23-1.21.45-1.74.68-1.1.47-2.16.88-2.36.91-.55.09-.47.46.17.77.32.16.72.31,1.19.46.07-.02.15-.04.25-.06.25-.04.68-.05.61,0-.07.04-.34.11-.58.16.21.06.44.12.68.18.22,0,.42,0,.51.02.28.03.86.23.7.24-.07-.02-.16-.03-.25-.04,1.1.23,2.47.47,4.18.71.05-.03.13-.04.34-.04h.54c.14,0,.48,0,.76-.02.37-.01.49,0,.45.02-.03.02-.11.04-.19.04-.2,0-.42.11-.36.17l-.04.03c1.13.15,2.38.31,3.78.47.03-.03.03-.06,0-.11-.06-.1-.09-.11-.27-.08-.11.02-.2.06-.21.08,0,.02-.05.02-.12.03-.03,0-.08,0-.13-.01.23-.04.36-.11.38-.23.02-.16.13-.18.83-.15h.33c.08.1.39.1.81,0,.07-.02.08-.03.13-.04.26-.02.51-.04.7-.06-.5.09-.74.17-.39.19.55.03.86,0,1.07-.1.11-.05.45-.15.76-.22s.57-.15.56-.17c0-.02-.13-.05-.28-.06-.24-.01-.27,0-.29.08,0,.06-.08.1-.2.11-.32.03-.62.07-.88.1.06-.05-.21-.11-.49-.11.12,0,.18-.02.17-.09,0-.04-.15-.05-.56-.04h-.23c.09-.02.24-.02.38-.02.27,0,.72-.06.7-.1.07,0,.17-.02.33-.04.31-.04.56-.05.7-.03.13.02.34.02.52-.01.27-.05.32-.04.45.09.03.03.05.06.06.08.03,0,.07-.01.1-.01.16,0,.41,0,.56.03.46.08.5-.03.06-.15-.41-.11-.34-.23.16-.27.26-.02.81-.2.77-.26-.03-.05-.87,0-1.5.1-.48.07-.54.07-.55,0-.04-.16-.85-.28-1.47-.21-.39.04-.8.05-1.45,0-.86-.05-.94-.05-1.54.08-.35.07-.71.13-.8.12-.04,0-.17.01-.33.03.62.04,1.21.13,1.02.19-.11.04-.35.03-1.42,0-.03.02-.08.05-.15.08-.29.09-.67.1-.59.01.04-.04.18-.08.32-.1h-.1c-.24.04-.48.09-.69.13-.28.06-.38.06-.54,0-.22-.08-1.21-.03-1.53.08.16-.15.11-.2-.15-.22-.21-.02-.34-.09-.29-.16.05-.06-.07-.14-.27-.17-.19-.03-.41-.11-.47-.19-.07-.08-.19-.15-.29-.15-.08,0-.15,0-.22.02,0,.02-.05.03-.13.04-.07.03-.09.07,0,.1.23.06-.31.24-.91.31-.54.06-1.46-.09-1.17-.2.07-.02-.04-.05-.24-.07-.76-.05-.74-.34.03-.4.14-.01.32-.06.4-.1.06-.04.33-.06.65-.07.65-.03,1.58,0,1.96.06.39.07,1.68.14,3.47.19.53.01,1.69.07,2.58.11.9.05,1.8.08,2,.07.21,0,.46,0,.56.03.1.02.34.03.54,0,.19-.02.62-.01.95.02.33.03.67.04.75.02.09-.02.64-.01,1.22,0,.47.02,1.19.04,1.78.05.45.02.92.04,1.41.05,0,0,.01,0,0,0-.1.07.29.09.55.03.02,0,.06-.01.11-.01.6.02,1.22.04,1.88.06.46.02.91.03,1.35.05-.02,0-.05,0-.11.01-.4.02-.55.05-.74.16-.13.07-.35.14-.48.15-.13.01-.36.08-.52.16-.29.15-1.18.29-1.64.26-.12,0-.36,0-.54.03-.33.04-1.1-.1-.91-.16.25-.08,1.57-.24,1.72-.2.19.05.78-.06.73-.13-.11-.16-.59-.23-1.17-.19-.49.04-.61.03-.81-.04-.2-.07-.3-.07-.76-.02-.29.03-.57.04-.62.02-.14-.06-.21,0-.27.2-.03.11-.11.21-.19.24-.08.03-.03.08.1.12.42.12-.01.25-.63.19-.29-.03-.62-.04-.73-.02-.11.01-.34.02-.5,0-.16-.02-.38.01-.48.05-.1.04-.29.06-.42.05-.07,0-.09-.02-.08-.04-.25.09-.47.25-.36.32.08.06.03.13-.14.21-.15.07-.29.15-.31.19-.04.08-.46.09-.47,0,0-.02-.12-.05-.27-.06-.16,0-.25-.07-.23-.15.02-.09-.12-.11-.42-.06-.51.09-.69.16-.56.21s-.04.11-.26.1c-.11,0-.21-.05-.23-.1-.02-.06-.14-.09-.31-.08-.33.02-.41.05-.32.12.03.02.03.04,0,.05,1.8.21,3.82.43,6.11.67,5.45.57,7,.62,19.63.61,7.14,0,10.45-.07,9.93-.2-.63-.15-1-.18-1.97-.14-1,.03-1.19.02-1.18-.1.02-.43,1.07-.5,2.75-.19.44.08.68.09.92.02.38-.11,3.57-.03,4.11.09.25.06.46.06.69,0,.47-.13,1.06-.11,1.05.04,0,.1.16.12.77.08.42-.03,1.01-.06,1.29-.06s.71-.09.93-.19c.27-.12.64-.11,1.11.02,1,.28.6.39-1.09.32-.86-.04-1.53-.03-1.76.03-.2.05-.98.1-1.73.11s-1.36.04-1.36.04c0,.06-1.72.06-2.09,0-.45-.07-1.4.02-1.1.11.08.02,1.9.07,4.04.1,2.14.03,4.41.07,5.04.1.63.02,1.22.02,1.31,0,.09-.02,2.15-.09,4.59-.14,2.44-.05,4.87-.13,5.41-.18.54-.04,2.26-.07,3.83-.07,2.92,0,3.33-.03,3.04-.31-.15-.14-.24-.14-.89-.05-.45.07-.9.08-1.18.04-1.57-.25-5.15-.33-6.12-.14-.35.07-.75.1-.9.07-.15-.03-.51-.01-.8.03-.36.05-.62.05-.83,0-.17-.05-.52-.06-.81-.03-.72.09-4.36.08-4.77,0-.19-.04-.53-.05-1.19-.05,0-.06.28-.11,1.97-.31.39-.05,1.65-.08,2.8-.07h.83s-.04-.01-.06-.03c-.05-.05-.17-.11-.27-.12-.22-.03.25-.08.62-.06.36.02.41.07.1.11.33.04.33.07.15.11.97,0,2.03-.01,2.78-.03,1.44-.03,2.33,0,2.98.08.88.11.95.11,1.38-.08.04-.02.08-.02.12-.04-.39-.05-.47-.14-.19-.28.08-.04.17-.07.25-.1.11,0,.23,0,.35,0,.05.04.04.1-.09.12-.09.02-.03.07.14.15.52-.07,1.32-.05,2.99.05,1.65.1,2.03.24,1.28.45-.39.11.25.21,1.05.17.62-.03.86-.23.28-.23-.24,0-.44-.05-.44-.11,0-.17.34-.22.76-.12.29.07.46.07.71,0,.63-.18.85-.09.69.28-.13.3-.08.36.27.34.79-.04,1.09-.28.56-.45-.57-.19-.25-.29,1.13-.36.73-.04.96-.01,1.33.16.25.11.66.19.93.18.36-.02.46.03.42.2-.03.12.06.22.2.22s.27-.07.27-.15.28-.25.6-.36c.57-.21.63-.21,1.28-.08.53.1.77.11,1.09.04s.56-.06,1.12.05c.85.17,1.51.12,1.52-.11,0-.22.46-.21,1,.04.59.27.35.35-1.23.41-2.22.09-2.57.17-.63.15,1,0,2.17-.06,2.61-.1.96-.1,1.11-.11.91-.01-.29.13,2.25.18,5.31.11,1.68-.04,3.78-.07,4.66-.06,1.44.01,1.61,0,1.61-.15,0-.2,1.11-.3,1.9-.17.3.05.63.06,1.21.12.31.16,1.08.19,1.08.04,0-.14-1.14-.43-1.72-.43-.63,0-.69-.14-.12-.24.33-.06.61-.03,1.09.1.45.13.76.16,1.06.1.66-.12,1.68-.09,1.67.05,0,.07-.25.12-.56.12s-.56.05-.03.17c.29-.04,1.01-.07,1.59-.06.92.02,1.08,0,1.24-.18.1-.11.4-.21.66-.23.56-.03.63.15.11.3-.28.08-.22.13.3.26.85.21,4.5.25,4.51.05,0-.16.77-.15,1.32.01.35.1.76.12,2,.08,1.99-.06,2.03-.08.93-.37-.81-.22-.99-.4-.57-.49.37,0,.74,0,1.12,0,.53.11.89.37.65.58-.23.2.69.29,2.16.06-.34-.03-.62-.09-1.01-.21-.4,0-.72-.17-.71-.37,0-.02.04-.04.09-.06.46,0,.91,0,1.37,0,.39,0,.74,0,1.09,0,.01.01.03.02.04.03.16.18.73.16.75-.03.28,0,.57,0,.83,0v.03s.07-.02.11-.03c2.06,0,3.45,0,4.4-.02.12.02.23.03.32.06.29.07.57.07,1.15-.02.7-.1.82-.1,1.35.06.57.17.6.17.97.02.37-.14.43-.14,1.17,0,.82.14,1.44.08,1.45-.16,0-.1.32-.11.65-.06.03.03.12.05.31.06.12.03.23.08.3.12.29.2.56.23.84.1.1-.04.38-.08.63-.08s.65-.05.9-.11c.01,0,.03,0,.04,0,.09,0,.16,0,.25,0,.6,0,1.18,0,1.71,0,.1.2.57.2,1.61.02.23,0,.39.02.46.03.28.04.95.03,1.53-.02.67-.05,1.13-.05,1.31,0,.74.21,1.61.07,1.78-.25.31,0,.59-.02.8-.03.86-.05,1.33-.05,1.6.02.03,0,.07.01.11.02-.03.04-.06.07-.1.12-.21.2.09.22,3.94.22,2.15,0,4.44.02,5.08.05,1.08.05,1.17.04,1.25-.14.12-.26,2.81-.32,3.73-.08.31.08.81.14,1.12.14s1.11,0,1.79.03c.45.02,1.13.02,1.79,0-.18-.1-.32-.22-.25-.25.22-.12.73-.09,1.15.05.19.06.27.11.3.15.88-.05,1.4-.05,1.46,0,.16.13,1.17.09,1.35-.05.11-.08.37-.11.8-.08.07,0,.15,0,.25,0,.09,0,.17,0,.25,0,.43-.03.69,0,.8.08.18.14,1.19.18,1.35.05.06-.05.58-.05,1.46,0,.03-.04.11-.09.3-.15.42-.14.93-.17,1.15-.05.07.03-.07.15-.25.25.66.02,1.34.02,1.79,0,.68-.02,1.49-.03,1.79-.03s.81-.06,1.12-.14c.92-.24,3.61-.18,3.73.08.08.18.17.19,1.25.14.64-.03,2.93-.05,5.08-.05,3.85,0,4.15-.02,3.94-.22-.05-.05-.07-.08-.1-.12.04,0,.08-.01.11-.02.27-.07.74-.07,1.6-.02.21.01.49.02.8.03.18.32,1.04.46,1.78.25.18-.05.64-.05,1.31,0,.58.05,1.25.06,1.53.02.07-.01.23-.02.46-.03,1.03.18,1.5.18,1.61-.02.53,0,1.11,0,1.71,0,.09,0,.17,0,.25,0,.01,0,.03,0,.04,0,.25.06.65.11.9.11s.53.04.63.08c.28.13.55.1.84-.1.07-.05.18-.09.3-.12.19-.01.27-.03.31-.06.33-.05.65-.04.65.06.01.24.63.3,1.45.16.74-.13.8-.13,1.17,0,.37.15.4.15.97-.02.53-.16.65-.16,1.35-.06.58.09.86.09,1.15.02.09-.02.2-.04.32-.06.95.01,2.35.02,4.4.02.04.01.07.02.12.03v-.03c.25,0,.53,0,.82,0,.03.19.6.21.75.03.01-.01.03-.02.04-.03.36,0,.71,0,1.09,0,.45,0,.91,0,1.37,0,.05.02.09.04.09.06,0,.2-.31.37-.71.37-.39.12-.67.18-1.01.21,1.47.23,2.39.14,2.16-.06-.24-.21.12-.47.65-.58.38,0,.75,0,1.12,0,.42.09.24.27-.57.49-1.1.29-1.06.31.93.37,1.24.04,1.65.02,2-.08.55-.16,1.32-.17,1.32-.01.01.2,3.66.16,4.51-.05.52-.13.58-.18.3-.26-.52-.15-.45-.33.11-.3.26.02.56.12.66.23.16.18.32.2,1.24.18.58-.01,1.3.02,1.59.06.53-.12.29-.17-.03-.17s-.56-.05-.56-.12c-.01-.14,1.01-.17,1.67-.05.3.06.61.03,1.06-.1.48-.13.76-.16,1.09-.1.57.1.51.24-.12.24-.58,0-1.72.29-1.72.43,0,.15.77.12,1.08-.04.58-.06.91-.07,1.21-.12.79-.13,1.9-.03,1.9.17,0,.15.17.16,1.61.15.88-.01,2.98.02,4.66.06,3.06.07,5.6.02,5.31-.11-.2-.1-.05-.09.91.01.44.04,1.61.1,2.61.1,1.94.02,1.59-.06-.63-.15-1.58-.06-1.82-.14-1.23-.41.54-.25,1-.26,1-.04.01.23.67.28,1.52.11.56-.11.8-.12,1.12-.05s.56.06,1.09-.04c.65-.13.71-.13,1.28.08.32.11.6.28.6.36s.13.15.27.15.23-.1.2-.22c-.04-.17.06-.22.42-.2.27.01.68-.07.93-.18.37-.17.6-.2,1.33-.16,1.38.07,1.7.17,1.13.36-.53.17-.23.41.56.45.35.02.4-.04.27-.34-.16-.37.06-.46.69-.28.25.07.42.07.71,0,.42-.1.76-.05.76.12,0,.06-.2.11-.44.11-.58,0-.34.2.28.23.8.04,1.44-.06,1.05-.17-.75-.21-.37-.35,1.28-.45,1.67-.1,2.47-.12,2.99-.05.17-.08.23-.13.14-.15-.13-.02-.14-.08-.09-.12.11,0,.23,0,.35,0,.08.03.17.06.25.1.28.14.2.23-.19.28.04.02.08.02.12.04.43.19.5.19,1.38.08.65-.08,1.54-.11,2.98-.08.75.02,1.81.03,2.78.03-.18-.04-.18-.07.15-.11-.31-.04-.26-.09.1-.11.37-.02.84.03.62.06-.1.01-.22.07-.27.12-.02.02-.06.03-.06.03h.83c1.15-.01,2.41.02,2.8.07,1.69.2,1.97.25,1.97.31-.66,0-1,.01-1.19.05-.41.08-4.05.09-4.77,0-.29-.03-.64-.02-.81.03-.21.06-.47.06-.83,0-.29-.04-.65-.06-.8-.03-.15.03-.55,0-.9-.07-.97-.19-4.55-.11-6.12.14-.28.04-.73.03-1.18-.04-.65-.09-.74-.09-.89.05-.29.28.12.32,3.04.31,1.57,0,3.29.03,3.83.07.54.05,2.97.13,5.41.18,2.44.05,4.5.12,4.59.14.09.02.68.02,1.31,0,.63-.03,2.9-.07,5.04-.1,2.14-.03,3.96-.08,4.04-.1.3-.09-.65-.18-1.1-.11-.37.06-2.09.06-2.09,0,0,0-.61-.03-1.36-.04s-1.53-.06-1.73-.11c-.23-.06-.9-.07-1.76-.03-1.69.07-2.09-.04-1.09-.32.47-.13.84-.14,1.11-.02.22.1.64.19.93.19s.87.03,1.29.06c.61.04.77.02.77-.08-.01-.15.58-.17,1.05-.04.23.06.44.06.69,0,.54-.12,3.73-.2,4.11-.09.24.07.48.06.92-.02,1.68-.31,2.73-.24,2.75.19.01.12-.18.13-1.18.1-.97-.04-1.34-.01-1.97.14-.52.13,2.79.19,9.93.2,12.63.01,14.18-.04,19.63-.61,2.29-.24,4.31-.46,6.11-.67-.03-.01-.03-.03,0-.05.09-.07,0-.1-.32-.12-.17,0-.29.02-.31.08-.02.05-.12.1-.23.1-.22,0-.39-.05-.26-.1s-.05-.12-.56-.21c-.3-.05-.44-.03-.42.06.02.08-.07.15-.23.15-.15.01-.27.04-.27.06-.01.09-.43.08-.47,0-.02-.04-.16-.12-.31-.19-.17-.08-.22-.15-.14-.21.11-.07-.11-.23-.36-.32.01.02,0,.04-.08.04-.13.01-.32-.01-.42-.05-.1-.04-.32-.07-.48-.05-.16.02-.39.01-.5,0-.11-.02-.44-.01-.73.02-.62.06-1.05-.07-.63-.19.13-.04.18-.09.1-.12-.08-.03-.16-.13-.19-.24-.06-.2-.13-.26-.27-.2-.05.02-.33,0-.62-.02-.46-.05-.56-.05-.76.02-.2.07-.32.08-.81.04-.58-.04-1.06.03-1.17.19-.05.07.54.18.73.13.15-.04,1.47.12,1.72.2.19.06-.58.2-.91.16-.18-.03-.42-.03-.54-.03-.46.03-1.35-.11-1.64-.26-.16-.08-.39-.15-.52-.16-.13,0-.35-.08-.48-.15-.19-.11-.34-.14-.74-.16-.06,0-.08,0-.11-.01.44-.02.89-.03,1.35-.05.66-.02,1.28-.04,1.88-.06.04,0,.09,0,.11.01.26.06.65.04.55-.03,0,0,0,0,0,0,.49-.02.97-.04,1.41-.05.59,0,1.31-.02,1.78-.05.58-.02,1.13-.03,1.22,0,.08.02.42,0,.75-.02.33-.03.76-.04.95-.02.2.03.44.02.54,0,.1-.03.35-.03.56-.03.2,0,1.1-.02,2-.07.89-.04,2.05-.1,2.58-.11,1.79-.05,3.08-.12,3.47-.19.38-.06,1.31-.09,1.96-.06.32.01.59.03.65.07.08.04.26.09.4.1.77.06.79.35.03.4-.2.02-.31.05-.24.07.29.11-.63.26-1.17.2-.6-.07-1.14-.25-.91-.31.09-.03.07-.07,0-.1-.08-.01-.13-.02-.13-.04-.07-.02-.14-.02-.22-.02-.1,0-.22.07-.29.15-.06.08-.28.16-.47.19-.2.03-.32.11-.27.17.05.07-.08.14-.29.16-.26.02-.31.07-.15.22-.32-.11-1.31-.16-1.53-.08-.16.06-.26.06-.54,0-.21-.04-.45-.09-.69-.13h-.1c.14.02.28.06.32.1.08.09-.3.08-.59-.01-.07-.03-.12-.06-.15-.08-1.07.04-1.31.05-1.42,0-.19-.06.4-.15,1.02-.19-.16-.02-.29-.03-.33-.03-.09.01-.45-.05-.8-.12-.6-.13-.68-.13-1.54-.08-.65.05-1.06.04-1.45,0-.62-.07-1.43.05-1.47.21,0,.07-.07.07-.55,0-.63-.1-1.47-.15-1.5-.1-.04.06.51.24.77.26.5.04.57.16.16.27-.44.12-.4.23.06.15.15-.03.4-.03.56-.03.03,0,.07.01.1.01.01-.02.03-.05.06-.08.13-.13.18-.14.45-.09.18.03.39.03.52.01.14-.02.39-.01.7.03.16.02.26.04.33.04-.02.04.43.1.7.1.14,0,.29,0,.38.02h-.23c-.41-.01-.56,0-.56.04,0,.07.05.09.17.09-.28,0-.55.06-.49.11-.26-.03-.56-.07-.88-.1-.12-.01-.2-.05-.2-.11-.02-.08-.05-.09-.29-.08-.15,0-.28.04-.28.06-.01.02.25.1.56.17s.65.17.76.22c.21.1.52.13,1.07.1.35-.02.11-.1-.39-.19.19.02.44.04.7.06.05.01.06.02.13.04.42.1.73.1.81,0h.33c.7-.03.81-.01.83.15.02.12.15.19.38.23-.05.01-.1.01-.13.01-.07-.01-.12-.01-.12-.03-.01-.02-.1-.06-.21-.08-.18-.03-.21-.02-.27.08-.03.05-.03.08,0,.11,1.4-.16,2.65-.32,3.78-.47l-.04-.03c.06-.06-.16-.17-.36-.17-.08,0-.16-.02-.19-.04-.04-.02.08-.03.45-.02.28.02.62.02.76.02h.54c.21,0,.29.01.34.04,1.71-.24,3.08-.48,4.18-.71-.09.01-.18.02-.25.04-.16-.01.42-.21.7-.24.09-.02.29-.02.51-.02.24-.06.47-.12.68-.18-.24-.05-.51-.12-.58-.16-.07-.05.36-.04.61,0,.1.02.18.04.25.06.47-.15.87-.3,1.19-.46.64-.31.72-.68.17-.77-.2-.03-1.26-.44-2.36-.91-.53-.23-1.14-.45-1.74-.68h-.05c-.61.01-1.5.03-2.52.05l-.04-.04s-.12-.04-.15-.02c0,0,.01.03.05.04.03.01.03.02.03.02-2.66.06-6.32.16-9.49.25-1.13.03-2.23.06-3.3.09,0,0,0-.01.02-.02-.06-.03-.08-.04-.07-.06.01-.02.05-.03.05-.03h-2.41s.09.05.04.07c-.09.04-.22.04-.33,0-.04-.01-.39-.02-.82-.03.08-.07.16-.1.37-.14.04,0,.08-.03.1-.05.01-.02.29-.16.62-.32.74-.35.79-.41.18-.19-.13.05-.21.1-.21.1.01.07-.29.11-.37.06-.02-.02-.05-.02-.1,0-.04,0-.05,0-.05.02-.05.02-.08.03-.18.08-.16.08-.43.2-.61.28s-.24.12-.28.15c-.56,0-.71-.01-.73-.05h-4.7v.02c-.04.14,0,.16.56.15.33,0,.74-.03.9-.05.42-.06.43,0,.05.16-.03.01-.07.02-.1.03-.98.02-1.93.03-2.85.04.01,0,.02-.01.04-.02.04-.01.28-.02.66-.02-.31-.09-.29-.17.09-.19.19,0,.24-.04.2-.12-3.84,0-8.01-.02-12.54-.02.47-.13.94-.31,1.13-.48.15-.14.39-.2.74-.19.53.01,3.54-1.02,4.71-1.6,1.74-.87,3.32-1.73,3.32-1.81,0-.02.07-.08.17-.14.71,0,1.42,0,2.1,0,1.46-.01,2.73.01,2.83.04.22.08,1.78.15,3.13.15.56,0,1.58.02,2.28.05.7.03,2.32.06,3.61.06,1.29.01,2.8.03,3.35.06.49.02,1.04-.02,1.59-.05,1.13-.22,2.21-.47,3.28-.79.54-.17,1.04-.34,1.52-.51.03.09.03.29-.01.55-.04.21-.03.37,0,.5.25.02.51.04.76.07.17-.09.24-.09.26.03.07.01.15.03.23.04.11-.18.19-.57.23-1.03-.08-.43-.17-.84-.22-.94-.14-.31-.09-1.25.09-1.63s.07-1.35-.17-1.61c-.1-.1-.14-.2-.12-.32.01-.1-.01-.23-.06-.3-.21-.3-.4-.76-.53-1.24-.04-.14-.11-.28-.11-.28,0,0-.03-.18-.02-.39,0-.2-.03-.78-.1-1.27-.06-.5-.12-1.05-.14-1.22-.02-.18-.05-.52-.07-.77-.14-1.14-.17-1.68-.14-2.1.03-.46.12-1.07.16-1.11,0,0-.02-.36-.04-.77-.03-.41-.04-.81-.01-.88.03-.07.08-.36.11-.65.04-.28.09-.63.11-.78.02-.15.03-.32.02-.38-.07-.32.12-1.04.41-1.57.1-.19,0-1.4-.24-2.87-.1-.65-.1-.73.02-1.03.07-.18.13-.37.13-.42-.01-.06.04-.16.1-.23.16-.2.24-.37.29-.68.04-.15.09-.4.13-.55.21-.69.17-1.95-.09-3.06-.1-.42-.17-.81-.16-.86s.03-.41.06-.79c.02-.38.06-.86.1-1.07.02-.21.17-1.3.19-1.47.11-.83-.1-3.29-.3-3.83.1-.21.2-.39.22-.4.02-.02.03-.05.03-.07-.02-.13,0-.18.08-.26s.14-.23.22-.61l-.25.08c.04.07-.02.17-.14.22-.09.04-.11.06-.19.26-.04.1-.1.23-.15.34-.03-.07-.05-.14-.07-.21-.11-.47-.24-.86-.38-1.13-.09-.17-.1-.28-.05-.56.02-.19.06-.48.08-.63.01-.15.07-.38.13-.51.06-.12.18-.39.28-.59.15-.31.24-.55.39-1.06.02-.08.1-.21.17-.29.12-.14.12-.24.04-1.24-.05-.6-.07-1.18-.04-1.28.1-.36.16-1.32.13-2.11-.01-.43,0-.81.03-.84.07-.07.13-.53.13-.93.01-.17.03-.47.04-.68.02-.21.04-.69.04-1.07s.02-.83.04-.99c.03-.2,0-.41-.07-.65-.34-1.11-.32-1.32.2-2.11.05-.07.13-.31.17-.53.04-.22.12-.44.17-.5.06-.05.09-.14.09-.18,0-.05.07-.14.16-.21.09-.06.2-.19.23-.28.03-.09.11-.21.16-.27.05-.07.09-.14.09-.17-.02-.26.4-.5.53-.29.09.14.29.25.46.25.14,0,.24-.07.45-.31.11-.13.12-.13.21-.05.11.09.21.46.29,1.01.02-6.18-.03-10.05-.14-11.24-.1-1.01-.13-2.9-.08-4.3.01-1.37.04-4.48.06-6.9-.12-14.59-.13-20.07-.06-21.77.1-2.44.55-2.13.63.44.03,1.07.19,2.8.35,3.87.48,3.23.62,7.57.31,9.66-.49,3.25-.63,8.58-.27,10.27.44,2.09.66,12.51.31,15.06-.24,1.72-.23,2.97.04,8.22.08,1.62.05,2.19-.12,2.26-.1.04-.25.92-.36,2.09.2,2.93.18,5-.07,6.77v.08c.19,1.05.41,1.88.5,1.84.12-.05.22,1.19.29,4.14.04,2.95.09,7.62.17,14.43.05,8.1-.07,12.11-.37,12.04-.35-.08-.56.83-.65,2.4-.01.39-.02.83-.04,1.3v.43s.02.05.02.07c.05-.03.11-.06.16-.1.02.03.07.08.07.08.04,0,.09-.09.13-.21.45-.32.89-.67,1.33-1.04v.04c.11,0,.19-.11.24-.25.11-.09.22-.18.33-.28l.02-.02c.55-.52,1.1-1.12,1.64-1.78-.04-.26-.14-.49-.27-.47-.16.03-.19-.06-.17-.44.02-.41,0-.47-.27-.5-.17-.02-.29-.13-.29-.27,0-.13-.08-.3-.19-.37-.19-.13-.18-.14.47-.43.37-.17.79-.28.94-.25.15.03.44-.02.65-.1.37-.15.37-.14.33.28-.04.38-.01.43.31.46-.01-.11-.04-.23-.12-.37-.04-.07-.06-.14-.08-.2.05-.04.11-.07.18-.07.16,0,.18-.05.13-.14.1.05.18.11.17.17-.04.16.17.19.42.07.2-.1.21-.16.04-.4-.04-.04-.05-.08-.07-.12.07-.02.13-.05.2-.09.12.08.24.21.35.34-.06.11-.14.27-.21.44-.04.08-.08.17-.12.25-.18.04-.34.13-.45.25.12.09.15.2.04.33-.05.06-.12.11-.19.14-.01.13-.05.13-.13.05-.14.03-.28.02-.36-.06-.11-.11-.21-.08-.5.15-.44.36-.61.78-.46.95.09-.11.18-.21.27-.33-.01.12-.01.26-.01.4h.05c.25-.05.29-.02.21.15-.06.12-.05.24.02.26.15.05.66-.24.62-.35-.02-.05.08-.18.22-.29.15-.12.22-.28.18-.39-.09-.23.03-.37.44-.53.36-.14.48.15.14.32-.25.13-.68.99-.51,1.04.07.03.24-.03.38-.11.17-.1.4-.08.66.05.22.11.35.23.28.27-.07.04-.2,0-.29-.09-.09-.09-.31-.11-.48-.04-.18.07-.47.18-.84.46.08.06.23.05.33,0,.19-.11.56-.01.46.29-.46.02-.57.58-.14.72.29.1.14.44-.39.85-.7.55-1.29.21-.83-.47.29-.42.16-.66-.3-.54-.12.03-.22.04-.3.02-.07,1.39-.15,2.08-.26,2.28-.28.51-.13,1.41.24,1.42.19,0,.28.12.28.31-.03.73.61.5.79-.28.09-.43.14-.46.65-.4.37.05.57-.19.6-.7.02-.42.12-1.04.22-1.38.09-.34.19-.95.2-1.36.02-.5.18-.71.47-.64.51.12.52.1.66-1.29.07-.78.06-1.17-.07-1.28l-.03-.02c-.09-.04-.21,0-.39.11-.49.31-.55.11-.32-1.05.13-.68.2-.84.3-.64.03.06.08.11.14.16-.02-.15-.06-.27-.14-.28-.15-.01-.16-.1-.08-.43.08-.36.06-.42-.16-.51-.16-.06-.24-.19-.22-.31.02-.11-.03-.28-.11-.37-.03-.03-.05-.06-.06-.08-.07.45-.22.82-.4.82-.05,0-.09-.05-.12-.14.19-.53.36-1.11.51-1.71.06.29.06.65.01.98.03-.05.17-.07.54-.13.34-.05.68-.04.83.01.02-.24.06-.45.1-.64-.11-.12-.05-.31.14-.47.18-.45.45-.62.77-.48.2.09.22.24.12.84-.11.65-.09.74.17.84.24.09.3.27.31.99,0,.26.02.43.04.57l.06-.02c.34-.03.4.26.07.32.03.03.06.05.11.06.23.06.27-.05.28-.91.04-2.09.09-2.87.24-3.22.2-.48.22-.86.05-.98-.11-.08-.14-1.35-.07-3.47-.17-.03-.25-.11-.2-.19.03-.05.13-.04.21,0,.02-.32.07-.78.13-1.13.08-.52.07-.9-.05-1.15-.26-.56-.34-1.16-.31-3.19-.06-.02-.13-.02-.22,0,.04-.05.13-.08.23-.08,0-.6.02-1.31.05-2.19.09-2.92.07-4.26-.06-4.97-.19-.99-.07-3.39.19-4.09.06-.18.15-2.03.18-4.1.03-1.49.05-2.58.07-3.43-.02-.02,0-.04,0-.06,0-.65.03-1.16.05-1.59-.07.06-.15.1-.23.1-.14-.02-.15-.03-.18-.42-.06-.72.02-1.13.24-1.24.1-.05.16-.07.22-.07-.01-1.29-.08-3.33-.16-4.2-.09-.94-.07-1.33.05-1.45.26-.25.26-1.33,0-1.44v-.13c.1.07.2.14.37.25l.06-.16c-.12-.04-.22-.13-.2-.21.02-.06-.01-.09-.2-.24.04-.56.11-1.47.16-2.81l-.05-.02s0-.06.05-.09c0-.2.02-.41.02-.63.06-1.95.12-2.43.31-2.64.14-.16.2-.39.15-.57-.05-.17-.02-.35.07-.4.52-.17.72-6.9.54-7.29-.18-.37-.17-.94.12-7.27.12-2.68.19-3.23.41-3.56.26-.38.25-.42-.14-1.3-.04-.09-.08-.17-.11-.25.08-1.38.15-2.86.2-4.51.03-.92.1-2.69.17-4.37-.24-.05-.47-.11-.57-.15-.14-.05-.35-.13-.46-.17-.13-.04-.17-.14-.11-.26.09-.17.03-.2-.36-.26-.31-.05-.45-.12-.45-.21.04-.49,1.02-.86,1.33-.51.08.09.3.2.47.22.12.02.15.05.19.07v-.06c.06-1.34.1-3.1.1-4.6-.02.01-.06.02-.12,0-.09-.02-.18-.14-.2-.25.18.04.28.11.32.17v-1.49s-.09-.05-.14-.08c-.28-.16-.25-.42.05-.55h.09c-.02-1.53-.01-3.24.03-3.92.04-.73.01-2.3-.05-3.49-.07-1.19-.11-3.24-.11-4.55s-.03-2.96-.1-4.79c-.11.02-.23.02-.23-.05,0-.06.11-.14.22-.19-.01-.35-.02-.71-.04-1.08.14-.48.15-.85-.04-1.02v-.04c-.03-.59-.07-1.23-.1-1.86.03-.81.1-1.64.2-1.93.09-.27.01-.39-.34-.6-.08-1.32-.18-2.69-.28-4.13.01-.66-.03-1.31-.1-1.45-.02-.35-.06-.74-.09-1.1.05.03.11-.06.11-.34.01-.17.14-.44.3-.59.25-.25.26-.31.07-.52-.17-.19-.2-.93-.17-3.93.04-3.66.05-3.7.36-3.86.39-.2.51-1.38.14-1.39-.65-.03-.78-2.51-.19-3.63.51-.96.52-1.45.05-2.08-.12-.16-.21-.42-.27-.73-.05,0-.09.03-.15.03-.21-.02-.34.04-.35.15-.03.32-.43.37-.76.1-.33-.27-.23-.44.22-.37.17.02.33-.03.39-.14.05-.1.18-.17.28-.15.15.02.24.01.31-.02,0-.07-.02-.15-.02-.23-.05-.04-.1-.08-.18-.11-.44-.18-.44-.24-.05-.49.06-.04.13-.04.21,0,0-.25.02-.48.06-.69-.39-.15-.5-.51-.09-.43h.2c.02-.06.03-.13.06-.18.11-.22.17-.63.14-.92-.04-.35.04-.72.26-1.12.18-.33.33-.75.33-.93,0-.19.12-.59.25-.89.24-.54.23-.56-.13-.94l.04-.18c-.32-.33-.36-.41-.27-1.27-.11.01-.27.05-.57.12-.66.16-.86.12-.62-.11.16-.16.85-.22,1.2-.16,0-.07.02-.13.02-.21.06-.5.15-.96.22-1.18-.26-.25-.3-.55-.11-.66-.06.01-.15-.02-.28-.14-.17-.15-.25-.32-.22-.46.05-.19.18-.17.32,0-.17-1.01.1-2.52.64-2.8.15-.07.22-.23.25-.41-.27-.25-.29-.31-.04-.53ZM257.17,200.03s-.09.11-.25.19c-.18,0-.36,0-.54,0,.08-.03.14-.07.14-.11-.01-.03.06-.06.15-.08-13.89.03-33.68.06-62.26.1-.08,0-.18.03-.24.03-.12.02-.26.03-.43.04-.85,0-2.11.02-3.15.03-1.04-.01-2.3-.02-3.15-.03-.16-.01-.31-.02-.43-.04-.06,0-.16-.02-.24-.03-28.58-.04-48.37-.07-62.26-.1.09.02.16.05.15.08,0,.04.06.08.14.11-.18,0-.36,0-.54,0-.16-.07-.27-.15-.25-.19-3.38,0-6.4-.01-9.12-.02.02-.02.01-.05-.03-.1-.09-.1,0-.18.23-.23.46-.1,1.18-.04,1.18.09.01.13,2.17.21,2.54.09.15-.05.39-.07.52-.04.13.03.42-.01.65-.09.26-.1.59-.13.9-.1.33.03.65-.02.99-.14.42-.15.53-.16.71-.06.18.1.28.08.63-.09.36-.18.47-.2.86-.11.25.06.59.1.77.1s.42.07.54.15c.08.05.31.08.58.09-.2-.09-.21-.18.02-.2.24-.02.32-.13.08-.22.18-.08.49.11.39.23-.05.06-.08.14-.05.18.36-.02.71-.07.86-.17.25,0,.31.04.46.28.23-.03.95-.08,1.62-.08.82,0,1.42-.07,1.85-.18.5-.13,1.01-.18,2.32-.18h.36c1.07,0,1.42-.05,1.73-.17.47-.19,4.46-.43,6.56-.38.91.02,1.89.02,2.84.02,1.4.07,3.86.13,6.77.14,3.81.01,4.72-.01,4.11-.12-.54-.1-2.26-.18-4.24-.23v-.03l-.04-.03s-.05.03-.07.06c-.38,0-.74-.03-1.13-.03.03-.01.11-.02.11-.02.29-.07.83-.09,1.79-.06.86.03,1.48.01,1.66-.04s.4-.06.6-.01c.4.09,1.68.02,2.34-.14.4-.09.65-.1,1.36-.02.75.08.93.07,1.27-.04.1-.03.22-.06.33-.08,2.55-.02,4.66-.04,6.23-.07.03.09-.05.18-.26.28.2.08.33.08.97,0,.13.14,1.22,0,1.34-.17.17-.24,1.75-.11,2.41.13.14-.03.35-.03.73.04.29.06.57.11.54.2.18-.02.37-.06.51-.12.31-.13.56-.15,1.13-.11.43.03.85.01,1.03-.04.16-.05.58-.09.92-.09,1.59.01,3.3-.17,4.05-.38.24-.07.39-.14.39-.22.01-.28.51-.24,1.44.11.74.28.82.29,1.08.16.3-.15,1.58-.11,1.87.06.05.02.4.05.89.07-.03.08-.09.14-.16.15-.35.05.02.47.41.47.2,0,.49.04.63.09.26-.16.93-.18,2.5-.07.63.04.92.02,1.22-.08.12-.04.26-.06.41-.08.07,0,.15,0,.23-.01.13,0,.26-.01.41,0,.08,0,.16,0,.23.01.15.02.29.04.41.08.3.1.59.12,1.22.08,1.57-.11,2.24-.09,2.5.07.14-.05.43-.09.63-.09.39,0,.76-.42.41-.47-.08,0-.13-.07-.16-.15.5-.02.85-.05.89-.07.29-.17,1.57-.21,1.87-.06.26.13.34.12,1.08-.16.93-.35,1.43-.39,1.44-.11,0,.08.15.15.39.22.75.21,2.46.39,4.05.38.34,0,.76.04.92.09.18.05.6.07,1.03.04.57-.04.82-.02,1.13.11.14.06.33.1.51.12-.03-.09.25-.14.54-.2.38-.07.59-.07.73-.04.66-.24,2.24-.37,2.41-.13.12.17,1.21.31,1.34.17.64.08.77.08.97,0-.21-.1-.29-.19-.26-.28,1.57.03,3.68.05,6.23.07.11.02.23.05.33.08.34.11.52.12,1.27.04.71-.08.96-.07,1.36.02.66.16,1.94.23,2.34.14.2-.05.42-.04.6.01s.8.07,1.66.04c.96-.03,1.5-.01,1.79.06,0,0,.08.01.11.02-.39,0-.75.02-1.13.03-.02-.03-.07-.06-.07-.06l-.04.03v.03c-1.98.05-3.7.13-4.24.23-.61.11.3.13,4.11.12,2.91-.01,5.37-.07,6.77-.14.95,0,1.93,0,2.84-.02,2.1-.05,6.09.19,6.56.38.31.12.66.16,1.73.17h.36c1.31,0,1.82.05,2.32.18.43.11,1.03.17,1.85.18.67,0,1.39.05,1.62.08.15-.24.21-.28.46-.28.15.1.5.15.86.17.03-.04,0-.12-.05-.18-.1-.12.21-.31.39-.23-.24.09-.16.2.08.22.23.02.22.11.02.2.27-.01.5-.04.58-.09.12-.08.36-.15.54-.15s.52-.04.77-.1c.39-.09.5-.07.86.11.35.17.45.19.63.09.18-.1.29-.09.71.06.34.12.66.17.99.14.31-.03.64,0,.9.1.23.08.52.12.65.09.13-.03.37-.01.52.04.37.12,2.53.04,2.54-.09,0-.13.72-.19,1.18-.09.23.05.32.13.23.23-.04.05-.04.08-.03.1-2.72,0-5.73.01-9.12.02ZM190.31,201.02c-.12,0-.12-.02-.03-.06.11-.05.06-.07-.12-.07.16,0,.3,0,.43,0,.13,0,.27,0,.43,0-.18,0-.23.02-.12.07.09.04.08.06-.03.06-.06,0-.15,0-.28,0-.13,0-.22,0-.28,0ZM84.26,8.58c-.12-.04-.17-.07-.07-.14.2-.14,1.07-.16,1.32-.03.09.05.09.08.1.12,2.09-.07,4.36-.15,6.65-.24,13.49-.53,22.09-.71,46.84-.96.26.08.3.08.15,0,1.05-.01,2.08-.02,3.18-.03.91,0,2.46-.02,4.52-.04-.12-.04-.11-.09.13-.11.15-.02.37,0,.5.05.06.02.08.04.07.06.78,0,1.63-.02,2.54-.02.11-.03.39-.03.72,0,1.01,0,2.07-.02,3.21-.03.04-.03.15-.05.37-.06.19,0,.38-.04.41-.07.11-.1.35-.04.32.08,0,.02-.04.02-.05.04,1.58-.01,3.27-.03,5.04-.05.06-.03.17-.06.35-.08.44-.05.56-.04.78.07,8.45-.08,18.76-.17,29.25-.27,10.5.1,20.81.19,29.25.27.22-.11.34-.12.78-.07.18.02.29.05.35.08,1.77.02,3.46.04,5.04.05-.01-.02-.05-.02-.05-.04-.03-.12.21-.18.32-.08.03.03.22.07.41.07.22.01.33.03.37.06,1.14.01,2.2.03,3.21.03.33-.03.61-.03.72,0,.91,0,1.76.02,2.54.02-.01-.02.01-.04.07-.06.13-.05.35-.07.5-.05.24.02.25.07.13.11,2.06.02,3.61.04,4.52.04,1.1.01,2.13.02,3.18.03-.15.08-.11.08.15,0,24.75.25,33.35.43,46.84.96,2.29.09,4.56.17,6.65.24.01-.04.01-.07.1-.12.25-.13,1.12-.11,1.32.03.1.07.05.1-.07.14,1.41.05,2.7.09,3.79.12.05.05.19.13.37.2.21.08.32.18.24.23-.22.12-1.07.1-1.23-.04-.11-.09-.27-.07-.7.11-.65.26-.69.35-.19.49.82.23.23.57-.69.4-.5-.09-.73-.1-1.09-.03-.25.05-.6.09-.77.09-.25,0-.27.11-.12.49.23.58.27.6,1.13.53.61-.05.63-.06.24-.16-.5-.13-.56-.29-.12-.29.38,0,.95.16,1.4.38.3.15.41.16.93.07.12-.11,0-.21-.02-.34,0-.17-.15-.25-.51-.28-.59-.06-.56-.28.05-.41.59-.12.93.03,1.02.45.05.26.18.36.47.38.44.03.54.14.18.22-.48.1.06.3.7.26.67-.04,1.01,0,1.17.17-4.74.04-9.82.07-15.26.1.06-.07.22-.11.57-.16.38-.05.96-.15,1.29-.22.1-.02.21-.03.32-.05.04.01.09,0,.15-.02.22-.03.43-.05.56-.05.23-.01.42-.06.42-.13,0-.16-1.17-.16-1.79,0-.51.12-1.07.09-1.07-.06.02-.32-.57-.25-1.9.22-.91.33-2,.46-3.25.4-1.67-.08-1.89-.11-2-.29-.18-.28-1.35-.38-2.37-.2-.6.1-.85.11-1.2.04-.36-.07-.67-.05-1.7.14-.69.13-1.13.23-.97.23.16-.01.38.08.5.19-2.23.01-4.51.02-6.82.02h-2.05s.07-.07.07-.15c.01-.29.06-.28-.93-.11-.74.13-.8.13-1.3-.03-.62-.2-1.46-.21-1.67-.03-.17.14-.12.26.03.33-2.13.01-4.14.02-5.98.02.15-.02.34-.03.53-.03.38,0,.74-.06.82-.13.12-.11.27-.1.99.04.97.18,1.37.12,1.68-.29.23-.3-.91-.51-1.44-.26-.2.09-.44.13-.62.09-.51-.1-1.74-.09-2.13.03-.25.07-.91.1-2.03.1-.91,0-3.16.04-5,.1-4.3.13-6.2.17-11.45.24-3.41.04-4.55.09-5.54.21-.26.04-.47.06-.64.08-.29.01-.58.01-.86.01-.1-.02-.2-.03-.32-.06-.57-.13-1.12-.09-1.78.09-.31.01-.61.02-.94.02-.05-.01-.08-.01-.14-.03-.43-.14-.62-.15-1.01-.07-.27.05-1.26.11-2.21.11-.69.01-1.27.04-1.55.06-.57.01-1.13.02-1.73.02-.33-.06-.59-.08-.92-.02-.06.01-.15.03-.23.03-.42,0-.85,0-1.27.01.21-.12.51-.23.77-.26.64-.09.69-.2.09-.2-.24,0-.69-.1-1-.21-.66-.24-1.12-.26-1.71-.08-.32.1-.43.19-.37.27-.23.04-.48.11-.69.17-.42.14-.65.25-.25.35h-.82c-1-.08-2.38-.08-2.54.02h-.48c-.06,0-.11,0-.18-.02-.38-.07-.65-.05-1.16.03-.53.01-1.05.01-1.57.01-.19-.12-.9-.16-1.52-.05-.16.03-.32.05-.48.06h-1.4c-.73-.04-1.14-.03-1.39.02h-.55s-.07-.01-.1-.03c-.28-.17-1.09-.17-1.2,0-.01.01-.05.03-.08.04-.9.01-1.77.01-2.62.01-.04-.02-.1-.03-.12-.05-.26-.23-.51-.24-.83,0-.03.03-.07.04-.1.06-3,.01-5.68.03-8.13.04-2.46,0-5.14-.02-8.13-.04-.03-.02-.07-.03-.1-.06-.32-.24-.57-.23-.83,0-.02.02-.08.03-.12.05-.85,0-1.72,0-2.62-.01-.03,0-.07-.03-.08-.04-.11-.17-.92-.17-1.2,0-.03.02-.07.02-.1.03h-.55c-.25-.05-.66-.06-1.39-.02h-1.4c-.16-.01-.32-.03-.48-.06-.62-.11-1.33-.07-1.52.05-.52,0-1.04,0-1.57-.01-.51-.08-.78-.1-1.16-.03-.07.01-.12.01-.18.02h-.48c-.16-.1-1.54-.1-2.54-.02h-.82c.4-.1.17-.21-.25-.35-.21-.07-.46-.13-.69-.17.06-.07-.05-.17-.37-.27-.59-.18-1.05-.16-1.71.08-.31.11-.76.21-1,.21-.6,0-.55.11.09.2.25.03.56.14.77.26-.42,0-.86,0-1.27-.01-.08,0-.17-.02-.23-.03-.33-.06-.59-.04-.92.02-.6,0-1.16-.01-1.73-.02-.28-.02-.86-.05-1.55-.06-.95,0-1.94-.06-2.21-.11-.39-.08-.58-.07-1.01.07-.06.02-.09.02-.14.03-.33,0-.63-.01-.94-.02-.66-.18-1.21-.22-1.78-.09-.12.03-.22.04-.32.06-.28,0-.57,0-.86-.01-.17-.02-.38-.04-.64-.08-.99-.12-2.13-.17-5.54-.21-5.25-.07-7.15-.11-11.45-.24-1.84-.06-4.09-.1-5-.1-1.12,0-1.78-.03-2.03-.1-.39-.12-1.62-.13-2.13-.03-.18.04-.42,0-.62-.09-.53-.25-1.67-.04-1.44.26.31.41.71.47,1.68.29.72-.14.87-.15.99-.04.08.07.44.12.82.13.19,0,.38.01.53.03-1.84,0-3.85-.01-5.98-.02.15-.07.2-.19.03-.33-.21-.18-1.05-.17-1.67.03-.5.16-.56.16-1.3.03-.99-.17-.94-.18-.93.11,0,.08.03.11.07.15h-2.05c-2.31,0-4.59,0-6.82-.02.12-.11.34-.2.5-.19.16,0-.28-.1-.97-.23-1.03-.19-1.34-.21-1.7-.14-.35.07-.6.06-1.2-.04-1.02-.18-2.19-.08-2.37.2-.11.18-.33.21-2,.29-1.25.06-2.34-.07-3.25-.4-1.33-.47-1.92-.54-1.9-.22,0,.15-.56.18-1.07.06-.62-.16-1.8-.16-1.79,0,0,.07.19.12.42.13.13,0,.34.02.56.05.06.02.11.03.15.02.11.02.22.03.32.05.33.07.91.17,1.29.22.35.05.51.09.57.16-5.44-.03-10.53-.06-15.26-.1.16-.17.5-.21,1.17-.17.64.04,1.18-.16.7-.26-.36-.08-.26-.19.18-.22.29-.02.42-.12.47-.38.09-.42.43-.57,1.02-.45.61.13.64.35.05.41-.36.03-.51.11-.51.28-.01.13-.14.23-.02.34.52.09.63.08.93-.07.45-.22,1.02-.38,1.4-.38.44,0,.38.16-.12.29-.39.1-.37.11.24.16.86.07.9.05,1.13-.53.15-.38.13-.49-.12-.49-.17,0-.52-.04-.77-.09-.36-.07-.59-.06-1.09.03-.92.17-1.51-.17-.69-.4.5-.14.46-.23-.19-.49-.43-.18-.59-.2-.7-.11-.16.14-1.01.16-1.23.04-.08-.05.03-.15.24-.23.17-.07.32-.15.37-.2,1.1-.03,2.38-.07,3.79-.12ZM350.82,9.8c-.07-.03-.13-.06-.2-.09.26,0,.53.02.81.03-.15.13-.37.19-.61.07ZM195.69,196.69c-.28.12-.51.28-.51.28,0,0-.2.02-.48.03,0,.03.01.06-.05.08-.05.02-.15-.01-.22-.07-.17,0-.35,0-.54,0-.72,0-1.44.05-1.61.1-.1.03-.21.05-.33.05-.02-.01-.05-.02-.07-.04,0,.02-.02.03-.05.04-.13,0-.28-.02-.46-.04-.38-.05-.62-.06-.78-.01-.16-.04-.4-.04-.78.01-.19.03-.33.04-.46.04-.03-.01-.05-.02-.05-.04-.02.02-.05.03-.07.04-.13,0-.23-.02-.33-.05-.17-.05-.89-.1-1.61-.1-.19,0-.37,0-.54,0-.07.06-.17.09-.22.07-.06-.02-.05-.05-.05-.08-.28-.01-.48-.03-.48-.03,0,0-.23-.16-.51-.28-.34-.15-.67-.15-.99,0-.44.2-.53.21-1.19.12-.92-.13-1.01-.13-1.31.14-.37,0-1.06-.28-1.07-.41-.19,0-.46.06-1,.17-.11-.06-.37-.09-.63-.06-.08.01-.16,0-.24,0h-.15c-.19-.02-.4-.07-.67-.18-.09-.03-.23-.05-.35-.08.98.01,1.89.02,2.69.04.4-.04.81-.09,1.14-.13.54-.06,1.05-.14,1.12-.17.25-.11,1.92-.25,4.81-.41,1.12-.06,2.23-.14,2.94-.2.7.06,1.82.14,2.94.2,2.89.16,4.56.3,4.81.41.07.03.58.11,1.12.17.33.04.74.09,1.14.13.8-.02,1.71-.03,2.69-.04-.12.03-.26.05-.35.08-.27.11-.48.16-.67.18h-.15c-.08,0-.16.02-.24,0-.26-.03-.52,0-.63.06-.54-.11-.81-.17-1-.17-.01.13-.7.41-1.07.41-.3-.27-.39-.27-1.31-.14-.66.09-.75.08-1.19-.12-.32-.15-.65-.15-.99,0ZM163.88,11.84c0,.08.13.18.28.21.26.06.24.1.06.13-.4,0-.78,0-1.18-.01.04-.05.12-.08.28-.08.21,0,.38-.06.38-.13,0-.04.08-.08.18-.12ZM217.03,12.05c.15-.03.28-.13.28-.21.1.03.18.07.18.12,0,.07.17.13.38.13.16,0,.23.03.28.08-.39,0-.78,0-1.18.01-.18-.03-.2-.07.06-.13ZM29.75,9.73c.28,0,.55-.02.81-.03-.07.03-.13.06-.2.09-.24.12-.47.06-.61-.07ZM354.11,10c-.26.2-1.06.21-1.79.01-.23-.06-.25-.16-.14-.26.76.02,1.56.04,2.36.06-.13.02-.31.09-.43.19ZM319.56,5.65c.07-.23.09-.23,1.02-.16.09,0,.17.02.25.03-.07.07-.52.11-1.27.13ZM329.59,5.88c-.21.08-1.27.06-1.25-.01.01-.04-.06-.08-.16-.09-.21-.02-.23-.1-.12-.2.57,0,1.13,0,1.7-.01.06.09,0,.25-.18.31ZM53.01,5.78c-.1.01-.17.05-.16.09.02.07-1.04.09-1.25.01-.18-.06-.24-.22-.18-.31.57,0,1.14,0,1.7.01.11.09.09.17-.12.2ZM60.36,5.53c.08-.01.17-.02.25-.03.94-.08.95-.08,1.02.16-.75-.01-1.2-.06-1.27-.13ZM29.01,9.75c.11.1.08.2-.14.26-.73.2-1.53.19-1.79-.01-.12-.1-.3-.17-.43-.19.81-.02,1.6-.04,2.36-.06ZM194.29,203.98c-.76.07-.84.06-.6-.08.24-.13-.2-.15-.6-.02-.08.03-.28.04-.45.05-.39-.07-.69-.05-.85.07-.12.09-.17.1-.45.04-.02,0-.05,0-.07-.01,0,0-.02,0-.02-.02,0-.11.39-.19.82-.18,0-.03.05-.08.27-.13.22-.05.3-.09.23-.11-.18-.05-.42,0-.97.18-.37.13-.64.18-.98.19,0,0-.02,0-.03,0,0,0-.02,0-.03,0-.34-.01-.61-.06-.98-.19-.55-.18-.79-.23-.97-.18-.07.02.01.06.23.11.22.05.28.1.27.13.43-.01.83.07.82.18,0,0-.01.01-.02.02-.02,0-.05,0-.07.01-.28.06-.33.05-.45-.04-.15-.13-.46-.14-.85-.07-.18,0-.37-.02-.45-.05-.4-.13-.84-.11-.6.02.24.14.16.15-.6.08-.18-.02-.25-.04-.26-.09.03,0,.06,0,.09,0,.14,0,.31-.05.49-.16.06-.04.11-.06.15-.08.09,0,.19,0,.31,0,.25,0,.37,0,.41-.02.24.02.4,0,.61-.05.3-.08.33-.13-.08-.17.1-.02.2-.04.3-.06.45-.09.94-.08.89-.01,0,0,0,0,0,0-.02.01-.03.02-.05.03-.02,0-.05.02-.09.03-.28.07-.22.15.11.14.02,0,.03,0,.04-.01.04,0,.07,0,.12.01q.43.04.41-.1c0-.08.05-.13.13-.13.03,0,.08,0,.12,0,.05,0,.1,0,.12,0,.08,0,.14.05.13.13q-.02.14.41.1c.05,0,.08,0,.12-.01.02,0,.03.01.04.01.33.01.39-.07.11-.14-.04-.01-.07-.02-.09-.03-.02-.01-.03-.02-.05-.03,0,0,0,0,0,0-.05-.07.44-.08.89.01.1.02.2.04.3.06-.41.05-.38.09-.08.17.22.06.37.07.61.05.03.02.15.02.41.02.12,0,.22,0,.31,0,.04.02.09.05.15.08.18.11.35.16.49.16.02,0,.06,0,.09,0,0,.05-.08.08-.26.09Z"/>
      <g>
        <g id="Dewalt">
          <g>
            <rect class="cls-1" x="49.39" y="40.84" width="290.8" height="5.51"/>
            <rect class="cls-1" x="49.39" y="105.65" width="290.58" height="5.51"/>
            <polygon class="cls-1" points="296 48.62 340.13 48.62 340.13 63.8 328.17 63.8 328.17 102.78 307.92 102.78 307.92 63.8 296 63.8 296 48.62"/>
            <polygon class="cls-1" points="265.66 48.62 265.66 102.78 302.43 102.78 302.43 86.78 285.88 86.78 285.88 48.62 265.66 48.62"/>
            <path class="cls-1" d="M224.26,49.11h22.21l17.03,53.67h-19.78l-2.03-8.17h-12.41l-1.84,8.17h-20.65l17.47-53.67h0ZM232.04,82.67h6.89l-3.37-15.63-3.52,15.63Z"/>
            <polyline class="cls-1" points="213.59 49.11 193.83 49.11 188.32 75.31 182.34 49.11 164.87 49.11 159.24 75.31 153.84 49.11 134.11 49.11 148.86 102.78 167.18 102.78 173.34 76.59 179.67 102.78 198.43 102.78 213.59 49.11"/>
            <polygon class="cls-1" points="105.01 60.6 134.45 60.6 134.45 71.64 120.2 71.64 120.2 76.23 132.6 76.23 132.6 87.27 120.2 87.27 120.2 91.85 134.45 91.85 134.45 102.78 105.01 102.78 105.01 60.6"/>
            <path class="cls-1" d="M49.35,102.78v-53.67h25.1c14.85,0,26.65,8.09,26.65,26.94s-11.43,26.73-26.75,26.73h-25.01.01ZM70.07,86.71c6.37,0,10.58-2.68,10.58-10.83,0-8.96-4.17-11.34-10.54-11.34h-1.63v22.17h1.59Z"/>
            <path class="cls-1" d="M330.9,97.98c0-2.52,2.05-4.38,4.47-4.38s4.44,1.86,4.44,4.38-2.05,4.41-4.44,4.41-4.47-1.86-4.47-4.41ZM335.37,101.66c1.99,0,3.56-1.56,3.56-3.68s-1.57-3.65-3.56-3.65-3.58,1.57-3.58,3.65,1.57,3.68,3.58,3.68ZM334.51,98.56h.72l.96,1.62h1.1l-1.13-1.69c.76-.09,1.28-.56,1.28-1.49,0-.77-.61-1.35-1.83-1.35h-1.94v4.52h.84v-1.62h0ZM334.51,97.8v-1.45h.98c.55,0,1.16.04,1.16.7,0,.76-.5.75-1.17.75h-.98.01Z"/>
          </g>
        </g>
        <g>
          <path class="cls-2" d="M75.23,120.24v8.85h-6.83v35.35h-11.49v-35.35h-6.8v-8.85h25.12Z"/>
          <path class="cls-2" d="M104.12,146.12c0,4.44-.1,7.58-.31,9.43-.21,1.85-.86,3.54-1.97,5.06s-2.59,2.7-4.46,3.52c-1.88.82-4.06,1.23-6.55,1.23s-4.49-.39-6.37-1.16-3.4-1.93-4.55-3.48c-1.15-1.55-1.83-3.23-2.05-5.05-.22-1.82-.33-5-.33-9.56v-7.56c0-4.44.1-7.58.31-9.43.21-1.85.86-3.54,1.97-5.06,1.1-1.53,2.59-2.7,4.46-3.52,1.87-.82,4.06-1.23,6.55-1.23s4.49.39,6.37,1.16c1.88.77,3.4,1.93,4.55,3.48,1.15,1.55,1.83,3.23,2.05,5.05s.33,5,.33,9.55v7.56ZM92.62,131.59c0-2.06-.11-3.37-.34-3.94s-.7-.86-1.41-.86c-.6,0-1.06.23-1.38.7-.32.46-.48,1.83-.48,4.11v20.64c0,2.57.1,4.15.31,4.75.21.6.7.9,1.46.9s1.28-.35,1.5-1.04c.22-.69.33-2.34.33-4.94v-20.31Z"/>
          <path class="cls-2" d="M134.53,120.24v29.54c0,3.35-.11,5.7-.33,7.06-.22,1.36-.86,2.75-1.94,4.18-1.07,1.43-2.49,2.51-4.25,3.25-1.76.74-3.83,1.11-6.21,1.11-2.64,0-4.97-.44-6.99-1.31-2.02-.87-3.53-2.01-4.53-3.41-1-1.4-1.59-2.88-1.77-4.44-.18-1.56-.27-4.83-.27-9.81v-26.15h11.49v33.14c0,1.93.1,3.16.31,3.7.21.54.63.81,1.27.81.73,0,1.2-.3,1.41-.89.21-.59.31-1.99.31-4.19v-32.57h11.49Z"/>
          <path class="cls-2" d="M165.35,136.51h-11.49v-4.01c0-2.53-.11-4.11-.33-4.75s-.74-.96-1.56-.96c-.71,0-1.19.27-1.45.82-.26.55-.38,1.95-.38,4.2v21.21c0,1.98.13,3.29.38,3.92.25.63.76.94,1.53.94.84,0,1.41-.35,1.71-1.06s.45-2.09.45-4.15v-5.24h-2.32v-6.72h13.46v23.72h-7.22l-1.06-3.17c-.78,1.37-1.77,2.39-2.96,3.07-1.19.68-2.6,1.02-4.22,1.02-1.93,0-3.74-.47-5.42-1.41-1.68-.94-2.96-2.1-3.84-3.48-.87-1.38-1.42-2.83-1.64-4.35-.22-1.52-.33-3.8-.33-6.84v-13.13c0-4.22.23-7.29.68-9.2s1.76-3.66,3.92-5.26c2.16-1.59,4.95-2.39,8.37-2.39s6.16.69,8.38,2.07c2.22,1.38,3.67,3.03,4.34,4.93.67,1.9,1.01,4.66,1.01,8.29v1.91Z"/>
          <path class="cls-2" d="M196.23,120.24v44.2h-11.49v-18.56h-3.44v18.56h-11.49v-44.2h11.49v15.81h3.44v-15.81h11.49Z"/>
          <path class="cls-2" d="M210.7,120.24h8.6c5.55,0,9.31.26,11.26.76,1.96.51,3.44,1.35,4.46,2.51,1.02,1.17,1.66,2.46,1.91,3.89s.38,4.24.38,8.42v15.48c0,3.97-.19,6.62-.56,7.96-.37,1.34-1.02,2.38-1.95,3.14s-2.07,1.28-3.44,1.58c-1.36.3-3.42.45-6.17.45h-14.5v-44.2ZM222.19,127.8v29.08c1.66,0,2.68-.33,3.06-1,.38-.66.57-2.47.57-5.42v-17.17c0-2-.06-3.29-.19-3.85-.13-.56-.42-.98-.87-1.24-.46-.26-1.31-.4-2.57-.4Z"/>
          <path class="cls-2" d="M241.6,120.24h19.16v8.85h-7.67v8.38h7.18v8.41h-7.18v9.72h8.44v8.85h-19.93v-44.2Z"/>
          <path class="cls-2" d="M284.7,120.24l6.57,44.2h-11.75l-.62-7.94h-4.11l-.69,7.94h-11.88l5.86-44.2h16.61ZM278.61,148.66c-.58-5.01-1.17-11.19-1.75-18.56-1.17,8.46-1.91,14.65-2.21,18.56h3.96Z"/>
          <path class="cls-2" d="M304.72,120.24v35.35h6.99v8.85h-18.48v-44.2h11.49Z"/>
          <path class="cls-2" d="M338.46,133.61h-10.67v-3.28c0-1.53-.14-2.5-.41-2.92-.27-.42-.73-.63-1.37-.63-.69,0-1.21.28-1.57.85-.35.56-.53,1.42-.53,2.57,0,1.48.2,2.59.6,3.33.38.75,1.46,1.65,3.25,2.7,5.12,3.04,8.34,5.53,9.67,7.48s1.99,5.09,1.99,9.42c0,3.15-.37,5.47-1.11,6.96-.74,1.49-2.16,2.74-4.27,3.75s-4.57,1.52-7.37,1.52c-3.08,0-5.7-.58-7.88-1.75-2.18-1.16-3.6-2.65-4.27-4.45-.67-1.8-1.01-4.36-1.01-7.67v-2.89h10.67v5.38c0,1.66.15,2.72.45,3.19.3.47.83.71,1.6.71s1.33-.3,1.71-.9c.37-.6.56-1.49.56-2.68,0-2.6-.36-4.3-1.06-5.1-.73-.8-2.52-2.14-5.38-4.01-2.86-1.89-4.75-3.27-5.68-4.12-.93-.85-1.7-2.04-2.31-3.55-.61-1.51-.91-3.44-.91-5.79,0-3.39.43-5.86,1.3-7.43.86-1.56,2.26-2.79,4.19-3.67,1.93-.88,4.26-1.32,6.99-1.32,2.99,0,5.53.48,7.63,1.45,2.1.97,3.49,2.18,4.18,3.65s1.02,3.95,1.02,7.47v1.75Z"/>
        </g>
      </g>
    </g>
  </g>
</svg>