<?xml version="1.0" encoding="UTF-8"?>
<svg id="Layer_1" data-name="Layer 1" xmlns="http://www.w3.org/2000/svg" version="1.1" viewBox="0 0 750 351.6">
  <defs>
    <style>
      .cls-1 {
        fill: lime;
      }

      .cls-1, .cls-2 {
        stroke-width: 0px;
      }

      .cls-2 {
        fill: #fff;
      }
    </style>
  </defs>
  <g>
    <polygon class="cls-1" points="42.9 209.6 40.3 222.4 52.7 222.4 55.3 209.6 42.9 209.6"/>
    <polygon class="cls-1" points="70.5 209.6 67.8 222.4 80.2 222.4 82.9 209.6 70.5 209.6"/>
    <polygon class="cls-1" points="100.2 209.6 97.6 222.4 110 222.4 112.7 209.6 100.2 209.6"/>
    <polygon class="cls-1" points="130.6 209.6 127.9 222.4 140.4 222.4 143.1 209.6 130.6 209.6"/>
    <polygon class="cls-1" points="162.4 209.6 159.7 222.4 172.4 222.4 175 209.6 162.4 209.6"/>
  </g>
  <g>
    <polygon class="cls-1" points="599.8 78.7 571.8 213.4 593.8 213.4 596.4 200.6 587.5 200.6 615.5 65.8 32.5 65.9 0 222.4 26 222.4 28.7 209.6 15.7 209.6 42.9 78.7 599.8 78.7"/>
    <polygon class="cls-1" points="620.4 200.6 608 200.6 605.4 213.4 617.8 213.4 620.4 200.6"/>
    <polygon class="cls-1" points="646.7 200.6 634.2 200.6 631.6 213.4 644 213.4 646.7 200.6"/>
    <polygon class="cls-1" points="675.1 200.6 662.7 200.6 660 213.4 672.5 213.4 675.1 200.6"/>
    <g>
      <polygon class="cls-1" points="704.2 200.6 691.7 200.6 689 213.4 701.6 213.4 704.2 200.6"/>
      <polygon class="cls-1" points="723.5 200.6 720.9 213.4 734.3 213.4 708.2 338.9 202.3 338.9 229.2 209.6 200.6 209.6 198 222.4 213.5 222.4 186.7 351.6 718.6 351.6 750 200.6 723.5 200.6"/>
    </g>
  </g>
  <g>
    <g>
      <path class="cls-2" d="M359.3,13.6c-12.3,0-22.1,9.6-22.1,21.4s9.8,21.4,22.1,21.4,22.1-9.6,22.1-21.4-9.8-21.4-22.1-21.4ZM359.3,43.6c-4.6,0-8.2-4-8.2-9s3.7-9,8.2-9,8.2,4,8.2,9-3.7,9-8.2,9Z"/>
      <path class="cls-2" d="M158.5,26.9c0-9-4.7-13.3-11.3-13.3s-8.5,1.8-11.6,5.2c-1.9-3.1-4-5.2-10-5.2s-8.2,1.8-11,5.1v-3.4h-.1c0,0-17.4,0-17.4,0v11.6h3.7v16.4h-3.7v11.9h17.7v-25c0-2.2.7-4.5,4-4.5s4,2.2,4,4.5v24.9h13.6v-24.9c0-2.2.7-4.5,4-4.5s4,2.2,4,4.5v24.9h17.8v-11.9h-3.7v-16.4h0Z"/>
      <polygon class="cls-2" points="229.4 26.9 232.9 26.9 232.9 15.4 229.2 15.4 229.2 2.5 215.7 2.5 215.7 15.4 212.1 15.4 212.1 26.9 215.7 26.9 215.7 43.4 211.9 43.4 211.9 55.2 233.2 55.2 233.2 43.4 229.4 43.4 229.4 26.9"/>
      <path class="cls-2" d="M265.5,18.1c-3.1-2.8-7-3.9-11.3-3.9-10.2,0-18.5,9.5-18.5,21.2s8.2,21.2,18.5,21.2,7.9-1.4,10.9-4.1v2.8h17.5v-11.8h-3.2v-16.4h3.3v-11.7h-17.3v2.8h0ZM257.6,43.5c-4.6,0-8.2-4-8.2-8.9s3.7-8.9,8.2-8.9,8.2,4,8.2,8.9-3.7,8.9-8.2,8.9Z"/>
      <path class="cls-2" d="M316.2,14.3c-4.2,0-8.1,1.1-11.3,3.9V0h-17.3v11.5h3.3v31.9h-3.3v11.8h17.5v-2.8c3.1,2.6,6.9,4.1,11,4.1,10.2,0,18.4-9.5,18.4-21.1s-8.2-21.1-18.4-21.1h0ZM312.8,43.5c-4.5,0-8.2-4-8.2-8.9s3.7-8.9,8.2-8.9,8.2,4,8.2,8.9-3.7,8.8-8.2,8.9Z"/>
      <path class="cls-2" d="M186.8,13.9c-13.9.2-21.9,10.1-21.9,21.5s10.6,21.6,21.9,21.5c11.4,0,19.4-7.1,21-13.3h-14.3c-1.8,2-4.9,2.5-6.9,2.4-4-.3-6.7-2.2-6.8-7.4h28.6c.2-1.2.3-2.1.3-3.3h0c0-11.3-8.6-21.7-21.9-21.5h0ZM179.7,30.7c0-3.7,3.5-6.9,6.9-6.9s7,3.1,7,6.9h-14Z"/>
      <path class="cls-2" d="M458.6,26.6h0s-8.1,0-8.1,0l-1.4,6.9h8.1c2.5,0,3.9-1,4.3-3.5.5-2.4-.4-3.5-2.9-3.5Z"/>
      <path class="cls-2" d="M504.6,13.5h-108.8c-2.8,0-5,2.2-5,5v31.5c0,2.8,2.2,5,5,5h108.8c2.8,0,5-2.2,5-5v-31.5c0-2.8-2.2-5-5-5ZM422.1,48.3l2.5-11.4h-13.9l-2.5,11.4h-9.1l5.8-27.4h9.1l-2.1,9.8h13.9l2.1-9.8h9.1l-5.8,27.4h-9.1ZM470.9,30.1c-.9,4.5-4.2,9.1-11.5,9.1h-11.5l-2,9.1h-9.1l5.8-27.4h20.2c7.4,0,9.2,4,8.1,9.1h0ZM501.6,27.1h-10l-4.5,21.2h-9.1l4.5-21.2h-10.1l1.3-6.2h29.2l-1.3,6.2h0Z"/>
    </g>
    <g>
      <path class="cls-2" d="M96.7,95.2h-40.6l-21.7,102.4h27.9l7.6-36.5h18.9c26.2,0,43.5-13,43.5-36.2s-12.2-29.7-35.7-29.7ZM85.7,141h-11.4l5.6-25.8h10.4c9.2,0,12.9,3.9,12.9,11.1s-6,14.7-17.5,14.7Z"/>
      <path class="cls-2" d="M240.6,136.7c0-23.8-13.5-43.4-43.7-43.4s-57.9,33.6-57.9,64.4,12.8,41.9,42.8,41.9,58.7-32.2,58.7-62.9ZM168.5,158.2c0-17.6,8.6-44.1,27-44.1s16.1,9.4,16.1,20.9c0,16.8-7,43.9-26.7,43.9s-16.5-8.3-16.5-20.6Z"/>
      <path class="cls-2" d="M286,197.7c8.1-18.2,21.9-46.8,28.5-66.4h.3c-.6,19.9-.3,47-.5,66.4h29l47.1-102.4h-27.7c-14.4,35.9-22.2,57.1-26.6,72.2h-.4c1.2-20.6.2-51.5.2-72.2h-25c-9.7,23.4-24.3,54.4-31,73.4h-.4c1.9-14.2,3-44.6,4.2-73.4h-28.6l2,102.4h29Z"/>
      <polygon class="cls-2" points="456.8 197.7 464.4 176.5 413.6 176.5 418.1 155.7 462.4 155.7 467 134.5 422.7 134.5 426.5 116.4 472.7 116.4 477.2 95.2 403.3 95.2 381.6 197.7 456.8 197.7"/>
      <path class="cls-2" d="M572.3,122.1c0-16.1-11.4-26.9-33.3-26.9h-44l-21.7,102.4h28.2l8.3-39.4h13.4c10.2,0,11.1,5.5,9,15.2-2.6,12.5-3.4,19.8-2.8,24.2h27.1c-.5-4.4,1.2-12.6,3.4-23.2,3.5-16.7-3.2-22.9-8.7-25.3,12.8-3.6,21.1-13.1,21.1-27ZM527,138.3h-13.1l4.9-23.2h12.7c8.8,0,12,4,12,10.2,0,9.2-6.8,13-16.5,13Z"/>
      <path class="cls-2" d="M280.2,225.4h-37.2l-21.7,102.4h43.6c42.7,0,60.4-29.5,60.4-59s-16.5-43.4-45.1-43.4ZM266.5,307.3h-12.4l13-61.3h9.5c12.4,0,18.7,7.1,18.7,22s-10.4,39.4-28.9,39.4Z"/>
      <polygon class="cls-2" points="410.9 285.9 415.5 264.7 371.1 264.7 375 246.6 421.2 246.6 425.6 225.4 351.8 225.4 330.1 327.8 405.3 327.8 412.8 306.6 362.1 306.6 366.5 285.9 410.9 285.9"/>
      <path class="cls-2" d="M469.6,225.4l-52.8,102.4h29.6l10-21.3h30.7l1.8,21.3h28.6l-10.7-102.4h-37.3ZM465.8,285.4c7.1-14.7,13.6-28.4,18.1-39.7h.4c.3,9.5,1.2,24.1,2.6,39.7h-21.1Z"/>
      <polygon class="cls-2" points="578.4 225.4 549.8 225.4 528.1 327.8 600.2 327.8 607.8 306.6 561.2 306.6 578.4 225.4"/>
      <path class="cls-2" d="M666.5,243.6c11.1,0,13.2,6.7,13.4,11.4h27.9c-.3-19.9-15.8-31.5-40.8-31.5s-41.2,14.2-41.2,32.9,8.7,22.1,30.6,29.3c12.1,3.9,16.8,7.2,16.8,13.8s-5.1,10.3-13.6,10.3-15.8-5.7-16.5-14h-28c.6,20.7,14.6,33.9,42.8,33.9s45.2-14.2,45.2-33.7-9.5-24.2-32.4-31.6c-12-3.9-15.8-7-15.8-11.8s4.9-9.1,11.7-9.1Z"/>
    </g>
  </g>
</svg>