<?xml version="1.0" encoding="UTF-8"?>
<svg id="Layer_1" data-name="Layer 1" xmlns="http://www.w3.org/2000/svg" viewBox="0 0 453.82 94.51">
  <defs>
    <style>
      .cls-1 {
        fill: #fff;
      }

      .cls-2 {
        fill: #f1ff58;
      }
    </style>
  </defs>
  <g>
    <path class="cls-2" d="M2.44,40.51h41.09v12.54h-25.67v7.16h21.47v11.58h-21.47v8.26h26.41v13.21H2.44v-52.75Z"/>
    <path class="cls-2" d="M49.44,40.51h15.42v39.54h22.58v13.21h-37.99v-52.75Z"/>
    <path class="cls-2" d="M91.49,40.51h41.09v12.54h-25.67v7.16h21.47v11.58h-21.47v8.26h26.41v13.21h-41.83v-52.75Z"/>
    <path class="cls-2" d="M135.68,67.07c0-15.79,10.85-27.52,26.71-27.52,5.75,0,10.92,1.48,14.76,4.13,5.46,3.76,8.63,9.67,9.29,16.38h-15.42c-.37-4.13-3.84-7.82-8.85-7.82-7.3,0-10.85,6.2-10.85,14.83s4.13,14.83,10.99,14.83c5.39,0,8.63-3.54,9.15-8.26h15.57c-.44,5.83-3.1,10.99-6.86,14.61-4.5,4.35-10.11,6.27-17.78,6.27-16.08,0-26.71-11.66-26.71-27.44Z"/>
    <path class="cls-2" d="M187.99,40.51h45.45v13.13h-15.12v39.62h-15.42v-39.62h-14.9v-13.13Z"/>
    <path class="cls-2" d="M237.72,40.51h26.19c10.77,0,19.92,4.94,19.92,15.71,0,6.05-3.1,10.33-8.63,12.84v.22c4.28,1.62,6.49,4.57,7.38,8.71,1.4,6.34.22,13.94,2.14,14.46v.81h-15.2c-1.48-1.03-.88-7.53-1.99-12.25-.96-4.06-2.73-6.12-7.23-6.12h-7.16v18.37h-15.42v-52.75ZM253.14,63.9h8.26c4.43,0,6.86-1.92,6.86-5.61,0-3.47-2.21-5.68-6.64-5.68h-8.48v11.29Z"/>
    <path class="cls-2" d="M288.7,40.51h15.42v52.75h-15.42v-52.75Z"/>
    <path class="cls-2" d="M308.4,67.07c0-15.79,10.85-27.52,26.71-27.52,5.75,0,10.92,1.48,14.76,4.13,5.46,3.76,8.63,9.67,9.29,16.38h-15.42c-.37-4.13-3.84-7.82-8.85-7.82-7.3,0-10.85,6.2-10.85,14.83s4.13,14.83,10.99,14.83c5.39,0,8.63-3.54,9.15-8.26h15.57c-.44,5.83-3.1,10.99-6.86,14.61-4.5,4.35-10.11,6.27-17.78,6.27-16.08,0-26.71-11.66-26.71-27.44Z"/>
    <path class="cls-2" d="M377.68,40.51h15.71l19.55,52.75h-16.38l-2.58-7.75h-17.85l-2.58,7.75h-15.35l19.48-52.75ZM379.6,74.89h10.92l-3.32-10.33c-.81-2.58-1.99-6.79-1.99-6.79h-.15s-1.11,4.21-1.99,6.79l-3.47,10.33Z"/>
    <path class="cls-2" d="M415.82,40.51h15.42v39.54h22.58v13.21h-37.99v-52.75Z"/>
  </g>
  <g>
    <path class="cls-1" d="M0,.57h23.36v4.96h-8.73v24.09h-5.89V5.52H0V.57Z"/>
    <path class="cls-1" d="M26.32.57h13.32c5.61,0,9.34,3.25,9.34,8.08,0,3.41-1.58,6.01-5.32,7.03v.12c2.68.77,4.06,2.32,4.43,5.85.41,4.1.24,7.23,1.26,7.68v.28h-5.65c-.73-.33-.81-3.57-1.06-6.7-.24-3.17-2.03-4.96-5.69-4.96h-4.75v11.66h-5.89V.57ZM32.21,13.4h6.25c3.21,0,4.79-1.67,4.79-3.98s-1.5-4.1-4.63-4.1h-6.42v8.08Z"/>
    <path class="cls-1" d="M60.97.57h6.09l10.24,29.04h-6.13l-1.95-6.17h-10.48l-1.91,6.17h-5.97L60.97.57ZM60.11,18.93h7.68l-2.6-8.37c-.49-1.54-1.18-4.47-1.18-4.47h-.08s-.73,2.92-1.22,4.47l-2.6,8.37Z"/>
    <path class="cls-1" d="M79.73.57h11.33c7.76,0,12.75,6.26,12.75,14.83,0,4.71-1.58,8.85-4.63,11.41-2.15,1.79-4.96,2.8-8.61,2.8h-10.84V.57ZM90.17,24.53c5.52,0,7.68-3.37,7.68-9.14s-2.52-9.79-7.51-9.79h-4.71v18.93h4.55Z"/>
    <path class="cls-1" d="M107.03.57h21.37v4.96h-15.48v6.5h13.57v4.83h-13.57v7.84h15.6v4.92h-21.49V.57Z"/>
    <path class="cls-1" d="M137.73,15.15c0-8.69,5.44-15.15,14.01-15.15s13.97,6.46,13.97,15.15-5.4,15.11-13.97,15.11-14.01-6.42-14.01-15.11ZM159.71,15.15c0-5.81-2.6-10.32-7.92-10.32s-8.04,4.51-8.04,10.32,2.72,10.28,8.04,10.28,7.92-4.51,7.92-10.28Z"/>
    <path class="cls-1" d="M168.93.57h20.8v5h-14.91v6.99h12.63v5.04h-12.63v12.02h-5.89V.57Z"/>
    <path class="cls-1" d="M198.37.57h23.36v4.96h-8.73v24.09h-5.89V5.52h-8.73V.57Z"/>
    <path class="cls-1" d="M224.69.57h5.89v11.37h11.41V.57h5.89v29.04h-5.89v-12.79h-11.41v12.79h-5.89V.57Z"/>
    <path class="cls-1" d="M252.35.57h21.37v4.96h-15.48v6.5h13.57v4.83h-13.57v7.84h15.6v4.92h-21.49V.57Z"/>
    <path class="cls-1" d="M284.32.57h8.29l4.1,14.58c1.02,3.66,1.83,7.84,1.83,7.84h.08s.77-4.18,1.79-7.84l4.1-14.58h8.41v29.04h-5.48V12.96c0-2.36.24-6.01.24-6.01h-.08s-.65,3.41-1.26,5.52l-5,17.14h-5.65l-4.87-17.14c-.61-2.11-1.26-5.52-1.26-5.52h-.08s.24,3.66.24,6.01v16.65h-5.4V.57Z"/>
    <path class="cls-1" d="M316.12,15.15c0-8.69,5.44-15.15,14.01-15.15s13.97,6.46,13.97,15.15-5.4,15.11-13.97,15.11-14.01-6.42-14.01-15.11ZM338.1,15.15c0-5.81-2.6-10.32-7.92-10.32s-8.04,4.51-8.04,10.32,2.72,10.28,8.04,10.28,7.92-4.51,7.92-10.28Z"/>
    <path class="cls-1" d="M347.32.57h5.97l9.67,16.21c.93,1.58,2.03,4.06,2.03,4.06h.08s-.16-3.01-.16-5.04V.57h5.81v29.04h-5.69l-9.91-16.04c-.93-1.54-2.07-4.02-2.07-4.02h-.08s.16,3.05.16,5.08v14.99h-5.81V.57Z"/>
    <path class="cls-1" d="M373.68.57h23.36v4.96h-8.73v24.09h-5.89V5.52h-8.73V.57Z"/>
    <path class="cls-1" d="M400,.57h5.89v11.37h11.41V.57h5.89v29.04h-5.89v-12.79h-11.41v12.79h-5.89V.57Z"/>
    <path class="cls-1" d="M427.01,11.5h5.93v5.89h-5.93v-5.89ZM427.01,23.72h5.93v5.89h-5.93v-5.89Z"/>
  </g>
</svg>