<?xml version="1.0" encoding="UTF-8"?>
<svg id="Layer_2" data-name="Layer 2" xmlns="http://www.w3.org/2000/svg" viewBox="0 0 285.6 128.16">
  <defs>
    <style>
      .cls-1, .cls-2 {
        fill: #fff;
      }

      .cls-2 {
        fill-rule: evenodd;
      }
    </style>
  </defs>
  <g id="Layer_1-2" data-name="Layer 1">
    <g>
      <polygon class="cls-1" points="0 48.72 37.68 16.8 36.24 31.68 47.28 22.32 52.8 28.56 66.48 17.76 72.72 24.48 65.76 86.16 57.36 79.92 62.88 29.04 60.96 27.84 53.76 35.04 46.8 92.64 38.16 86.4 44.4 34.56 42.9 32.94 35.19 39.42 27.36 99.6 18.96 93.36 25.44 36.72 0 48.72"/>
      <polygon class="cls-1" points="78.48 30.48 77.52 39.36 86.4 37.68 87.6 29.04 78.48 30.48"/>
      <polygon class="cls-1" points="76.8 44.88 85.92 42.96 82.08 71.04 84 72.24 88.56 66.72 94.56 20.64 103.2 19.44 97.44 66.96 99.84 69.12 103.44 64.32 106.8 38.64 115.92 36.72 112.56 64.56 115.68 66.96 118.49 62.56 121.68 35.76 130.8 33.6 127.44 59.78 131.04 62.88 133 60.09 137.04 32.64 143.76 31.2 140.16 58.08 128.64 70.8 121.44 65.04 113.28 75.84 104.88 68.64 96.24 79.2 88.32 72.96 80.16 83.28 72.96 77.28 76.8 44.88"/>
      <path class="cls-1" d="m261.6,31.44l-2.88-2.16.48-4.32,12.24-7.2-9.6-12-9.12,8.16-2.16,16.8-12.24,6.48-2.64-2.16.48-4.8,13.2-7.2-10.32-12.96-9.84,7.92-2.16,16.56-4.32,4.08-6.72-12.96,14.88-14.4-6.96.96-11.28,9.6,2.64-21.84-8.16,1.2-4.56,37.68-5.28,5.52-.96-.72,2.88-24.24-9.12,2.4-2.64,21.36-4.08,4.8-1.68-1.44,3.12-23.76-8.88,1.68-3.6,23.28-3.36,4.32-1.92-1.44,2.88-24.96-8.88,1.92-.24,1.92-6.48-2.88-8.64,11.04-2.64,19.92,8.64,7.68,7.68-10.08,6.96,5.76,7.2-9.36,6,5.28,7.2-8.88,6.96,5.52,8.64-9.6,6.96,5.28,2.4-16.08,6.72,14.16,10.08-8.88,6,4.8,17.76-9.84,5.04,3.84,17.04-9.6.48-3.84-13.2,7.68Zm-.96-18.24l3.84,4.56-4.56,2.4.72-6.96Zm-22.8,4.56l4.32,4.56-5.28,3.12.96-7.68Zm-79.68,33.36l-3.6,4.56-2.16-1.44,2.88-23.52,5.04,2.4-2.16,18Z"/>
      <path class="cls-1" d="m270.14,1.91c2.07,0,3.72,1.54,3.72,3.47s-1.65,3.49-3.74,3.49-3.75-1.53-3.75-3.49,1.68-3.47,3.75-3.47h.02Zm-.02.54c-1.67,0-3.03,1.31-3.03,2.93s1.36,2.95,3.05,2.95c1.68.01,3.03-1.3,3.03-2.93s-1.35-2.95-3.03-2.95h-.02Zm-.71,4.95h-.67v-3.87c.35-.05.69-.09,1.2-.09.64,0,1.06.12,1.31.29.25.17.39.43.39.8,0,.51-.37.82-.83.94v.03c.37.06.62.37.71.94.1.6.2.83.27.96h-.71c-.1-.12-.2-.48-.29-.99-.1-.49-.37-.68-.91-.68h-.47v1.67Zm0-2.14h.49c.56,0,1.03-.19,1.03-.66,0-.34-.27-.68-1.03-.68-.22,0-.37.01-.49.03v1.31Z"/>
      <polygon class="cls-2" points=".96 128.16 118.56 83.04 113.28 94.56 215.76 59.52 211.68 68.88 285.6 41.04 186.48 91.2 192.72 79.2 81.6 120.48 88.8 106.32 .96 128.16"/>
    </g>
  </g>
</svg>